<?xml version="1.0" encoding="utf-8"?>
<!-- Generator: Adobe Illustrator 27.5.0, SVG Export Plug-In . SVG Version: 6.00 Build 0)  -->
<svg version="1.1" id="_x2018_ëîé_x5F_1" xmlns="http://www.w3.org/2000/svg" xmlns:xlink="http://www.w3.org/1999/xlink"
	 x="0px" y="0px" viewBox="0 0 3200 2000" style="enable-background:new 0 0 3200 2000;" xml:space="preserve">
<rect style="fill:#F0F2F9;" width="3200" height="2000"/>
<g>
	<path style="fill:#F0F2F9;" d="M3053.52,1619.689c-2.01,8.53-4.279,17.311-6.789,26.091c-2.261,8.8-5.261,18.09-8.53,27.38
		c-1.511,4.51-332.41,80.83-332.41,80.83l-87.36-0.24h-782.3l-228.46-0.26h-602.28l-251.57-0.24H384.07
		c-51.8,0-97.94-32.87-114.81-81.86c-1.45-4.2-2.79-8.17-3.99-11.79c-6.9-21.38-14.49-45.92-22.22-73.039
		c-3.8-13.301-7.63-27.23-11.43-41.7c-3.73-14.3-7.45-29.12-11.04-44.44c-0.77-3.23-1.52-6.5-2.27-9.78
		c-0.36-1.569-0.72-3.149-1.09-4.729c-0.01-0.03-0.01-0.061-0.02-0.09c-2.88-12.601-5.74-25.73-8.43-38.87
		c-11.24-54.19-20.77-112.49-26.39-172.3c-4.68-49.65-6.67-100.34-4.74-150.561c0.5-11.81,1.26-23.6,2.01-35.4
		c2.01-25.109,5.02-50.209,9.3-74.56c2.75-16.57,6.27-33.14,10.28-49.21c9.8-39.42,23.1-77.07,40.67-112.72
		c6.29-12.3,12.81-24.35,20.09-36.15c16.32-26.87,32.89-51.98,49.72-75.58h0.24c8.8-12.55,17.58-24.34,26.37-35.65
		c32.88-42.67,66.28-79.33,99.92-110.96c412.979-386.37,886.47-13.56,1179.47-272.9c286.45-253.31,822.46-257.09,1062.22-23.34
		c4.521,4.51,9.29,9.03,13.801,14.05c19.5,20.68,36.76,43.12,51.409,67.28c6.811,11.19,13.061,22.75,18.72,34.69
		c34.4,72.56,47.121,158.79,30.61,258.47c-3.149,19.05-7.38,38.59-12.729,58.63c-0.12,0.48-0.25,0.97-0.381,1.45
		c-10.369,38.18-24.72,77.92-43.479,119.82c-1.22,2.73-2.46,5.47-3.72,8.22c-2.01,4.27-4.021,8.54-6.03,12.81
		c-46.94,98.19-32.55,168.17,9.75,227.56c16.74,23.521,37.87,45.381,61.3,66.67c50.96,46.45,112.48,90.131,163.69,142.351
		c6.77,7.03,13.3,14.06,19.83,21.35c2.689,3.12,5.35,6.261,7.97,9.431c6.64,8.029,13.02,16.239,19.14,24.71
		c0.351,0.5,0.71,1,1.05,1.51c23.98,34.28,41.98,72.67,49.971,117.37c0.12,0.609,0.22,1.22,0.33,1.83c0,0.029,0.01,0.06,0.01,0.09
		C3065.91,1525.17,3064.93,1569.27,3053.52,1619.689z"/>
	<path style="opacity:0.5;fill:#9BCC8F;" d="M1014.172,1052.887c0,0-151.842-19.49-210.466,35.615
		c-58.624,55.106-28.011,122.6-119.547,120.08c-91.536-2.521-143.947,130.815-149.04,204.318
		c-5.093,73.503,28.568,81.946,28.568,81.946h471.484L1014.172,1052.887z"/>
	<g>
		<path style="fill:#F2CCAA;" d="M3018.47,1484.65H1016.05V730.74h1763.69c-0.12,0.48-0.25,0.97-0.381,1.45
			c-10.369,38.18-24.72,77.92-43.479,119.82c-1.22,2.73-2.46,5.47-3.72,8.22c-2.01,4.27-4.021,8.54-6.03,12.81
			c-46.94,98.19-32.55,168.17,9.75,227.56c16.74,23.521,37.87,45.381,61.3,66.67c50.96,46.45,112.48,90.131,163.69,142.351
			c6.77,7.03,13.3,14.06,19.83,21.35c2.689,3.12,5.35,6.261,7.97,9.431c6.64,8.029,13.02,16.239,19.14,24.71
			c0.351,0.5,0.71,1,1.05,1.51L3018.47,1484.65z"/>
		<rect x="1266.473" y="730.74" style="fill:#F9DDBF;" width="203.943" height="734.569"/>
		<rect x="996.643" y="1380.906" style="fill:#DDAF8A;" width="1971.663" height="105.587"/>
		<path style="fill:#F9DDBF;" d="M2726.13,873.04c-46.94,98.19-32.55,168.17,9.75,227.56v364.711h-203.95V730.74h203.95v121.27
			c-1.22,2.73-2.46,5.47-3.72,8.22C2730.15,864.5,2728.14,868.77,2726.13,873.04z"/>
		<rect x="1729.494" y="626.626" style="fill:#F9DDBF;" width="487.318" height="849.485"/>
		<g>
			<rect x="1586.785" y="1110.783" style="fill:#FFF2E6;" width="68.239" height="24.156"/>
			<rect x="1602.097" y="1134.939" style="fill:#FFF2E6;" width="37.615" height="349.706"/>
			<path style="fill:#DDAF8A;" d="M1602.097,1150.728c0,0,5.551-10.347,18.808-9.863c14.428,0.526,18.808,9.863,18.808,9.863
				v-15.788h-37.615V1150.728z"/>
			<rect x="1586.785" y="1110.75" style="fill:#DDAF8A;" width="68.239" height="4.208"/>
		</g>
		<g>
			<rect x="1778.478" y="1110.783" style="fill:#FFF2E6;" width="68.239" height="24.156"/>
			<rect x="1793.789" y="1134.939" style="fill:#FFF2E6;" width="37.615" height="349.706"/>
			<path style="fill:#DDAF8A;" d="M1793.789,1150.728c0,0,5.551-10.347,18.808-9.863c14.428,0.526,18.808,9.863,18.808,9.863
				v-15.788h-37.615V1150.728z"/>
			<rect x="1778.478" y="1110.75" style="fill:#DDAF8A;" width="68.239" height="4.208"/>
		</g>
		<g>
			<rect x="2105.437" y="1110.783" style="fill:#FFF2E6;" width="68.238" height="24.156"/>
			<rect x="2120.748" y="1134.939" style="fill:#FFF2E6;" width="37.615" height="349.706"/>
			<path style="fill:#DDAF8A;" d="M2120.748,1150.728c0,0,5.55-10.347,18.808-9.863c14.428,0.526,18.808,9.863,18.808,9.863v-15.788
				h-37.615V1150.728z"/>
			<rect x="2105.437" y="1110.75" style="fill:#DDAF8A;" width="68.238" height="4.208"/>
		</g>
		<g>
			<rect x="2316.996" y="1110.783" style="fill:#FFF2E6;" width="68.238" height="24.156"/>
			<rect x="2332.308" y="1134.939" style="fill:#FFF2E6;" width="37.615" height="349.706"/>
			<path style="fill:#DDAF8A;" d="M2332.308,1150.728c0,0,5.55-10.347,18.808-9.863c14.428,0.526,18.808,9.863,18.808,9.863v-15.788
				h-37.615V1150.728z"/>
			<rect x="2316.996" y="1110.75" style="fill:#DDAF8A;" width="68.238" height="4.208"/>
		</g>
		<g>
			<path style="fill:#F2CCAA;" d="M2056.123,1483.18H1895.66v-195.805c0-43.517,35.276-78.793,78.793-78.793h7.435
				c40.999,0,74.235,33.236,74.235,74.235V1483.18z"/>
		</g>
		<g>
			<path style="fill:#DDAF8A;" d="M1183.163,976.67h-80.939v-88.427c0-20.968,16.998-37.966,37.966-37.966h7.204
				c19.755,0,35.77,16.015,35.77,35.77V976.67z"/>
			<g>
				<g>
					<path style="fill:#FFFFFF;" d="M1147.39,847.39h-7.2c-22.53,0-40.86,18.32-40.86,40.85v91.32h86.72v-93.51
						C1186.05,864.73,1168.71,847.39,1147.39,847.39z M1140.19,853.17h7.2c18.13,0,32.88,14.75,32.88,32.88v87.73h-75.16v-85.54
						c0-0.33,0-0.66,0.01-0.98C1105.65,868.37,1121.18,853.17,1140.19,853.17z"/>
				</g>
				<rect x="1102.854" y="887.261" style="fill:#FFFFFF;" width="78.992" height="5.459"/>
				<rect x="1139.695" y="889.991" style="fill:#FFFFFF;" width="5.311" height="86.216"/>
			</g>
			<g>
				<path style="fill:#DDAF8A;" d="M1122.406,816.945c0,0,17.289-5.793,44.07,0l-9.312,23.177c0,0-12.779-1.711-25.367,0
					L1122.406,816.945z"/>
				<path style="fill:#DDAF8A;" d="M1128.385,840.679l-10.075-19.658c0,0-10.992,2.248-14.969,6.536l16.735,15.191L1128.385,840.679
					z"/>
				<path style="fill:#DDAF8A;" d="M1160.452,840.778l9.18-19.439c0,0,9.567,0.955,14.969,6.536l-16.6,14.872L1160.452,840.778z"/>
			</g>
		</g>
		<g>
			<path style="fill:#DDAF8A;" d="M1405.917,976.67h-80.94v-88.427c0-20.968,16.998-37.966,37.966-37.966h7.204
				c19.755,0,35.77,16.015,35.77,35.77V976.67z"/>
			<g>
				<g>
					<path style="fill:#FFFFFF;" d="M1370.15,847.39h-7.21c-22.53,0-40.85,18.32-40.85,40.85v91.32h86.72v-93.51
						C1408.81,864.73,1391.46,847.39,1370.15,847.39z M1362.94,853.17h7.21c18.13,0,32.88,14.75,32.88,32.88v87.73h-75.16v-85.54
						c0-0.33,0-0.66,0.01-0.98C1328.41,868.37,1343.93,853.17,1362.94,853.17z"/>
				</g>
				<rect x="1325.607" y="887.261" style="fill:#FFFFFF;" width="78.992" height="5.459"/>
				<rect x="1362.448" y="889.991" style="fill:#FFFFFF;" width="5.311" height="86.216"/>
			</g>
			<g>
				<path style="fill:#DDAF8A;" d="M1345.159,816.945c0,0,17.289-5.793,44.07,0l-9.312,23.177c0,0-12.778-1.711-25.367,0
					L1345.159,816.945z"/>
				<path style="fill:#DDAF8A;" d="M1351.139,840.679l-10.075-19.658c0,0-10.992,2.248-14.969,6.536l16.735,15.191L1351.139,840.679
					z"/>
				<path style="fill:#DDAF8A;" d="M1383.205,840.778l9.181-19.439c0,0,9.567,0.955,14.968,6.536l-16.6,14.872L1383.205,840.778z"/>
			</g>
		</g>
		<g>
			<path style="fill:#DDAF8A;" d="M1183.163,1297.99h-80.939v-88.428c0-20.968,16.998-37.966,37.966-37.966h7.204
				c19.755,0,35.77,16.015,35.77,35.771V1297.99z"/>
			<g>
				<g>
					<path style="fill:#FFFFFF;" d="M1147.39,1168.71h-7.2c-22.53,0-40.86,18.32-40.86,40.851v91.319h86.72v-93.51
						C1186.05,1186.05,1168.71,1168.71,1147.39,1168.71z M1140.19,1174.49h7.2c18.13,0,32.88,14.75,32.88,32.88v87.729h-75.16
						v-85.539c0-0.33,0-0.66,0.01-0.98C1105.65,1189.689,1121.18,1174.49,1140.19,1174.49z"/>
				</g>
				<rect x="1102.854" y="1208.582" style="fill:#FFFFFF;" width="78.992" height="5.458"/>
				<rect x="1139.695" y="1211.311" style="fill:#FFFFFF;" width="5.311" height="86.217"/>
			</g>
			<g>
				<path style="fill:#DDAF8A;" d="M1122.406,1138.266c0,0,17.289-5.793,44.07,0l-9.312,23.177c0,0-12.779-1.711-25.367,0
					L1122.406,1138.266z"/>
				<path style="fill:#DDAF8A;" d="M1128.385,1161.999l-10.075-19.657c0,0-10.992,2.248-14.969,6.535l16.735,15.191
					L1128.385,1161.999z"/>
				<path style="fill:#DDAF8A;" d="M1160.452,1162.099l9.18-19.438c0,0,9.567,0.955,14.969,6.535l-16.6,14.873L1160.452,1162.099z"
					/>
			</g>
		</g>
		<g>
			<path style="fill:#DDAF8A;" d="M1405.917,1297.99h-80.94v-88.428c0-20.968,16.998-37.966,37.966-37.966h7.204
				c19.755,0,35.77,16.015,35.77,35.771V1297.99z"/>
			<g>
				<g>
					<path style="fill:#FFFFFF;" d="M1370.15,1168.71h-7.21c-22.53,0-40.85,18.32-40.85,40.851v91.319h86.72v-93.51
						C1408.81,1186.05,1391.46,1168.71,1370.15,1168.71z M1362.94,1174.49h7.21c18.13,0,32.88,14.75,32.88,32.88v87.729h-75.16
						v-85.539c0-0.33,0-0.66,0.01-0.98C1328.41,1189.689,1343.93,1174.49,1362.94,1174.49z"/>
				</g>
				<rect x="1325.607" y="1208.582" style="fill:#FFFFFF;" width="78.992" height="5.458"/>
				<rect x="1362.448" y="1211.311" style="fill:#FFFFFF;" width="5.311" height="86.217"/>
			</g>
			<g>
				<path style="fill:#DDAF8A;" d="M1345.159,1138.266c0,0,17.289-5.793,44.07,0l-9.312,23.177c0,0-12.778-1.711-25.367,0
					L1345.159,1138.266z"/>
				<path style="fill:#DDAF8A;" d="M1351.139,1161.999l-10.075-19.657c0,0-10.992,2.248-14.969,6.535l16.735,15.191
					L1351.139,1161.999z"/>
				<path style="fill:#DDAF8A;" d="M1383.205,1162.099l9.181-19.438c0,0,9.567,0.955,14.968,6.535l-16.6,14.873L1383.205,1162.099z"
					/>
			</g>
		</g>
		<g>
			<path style="fill:#DDAF8A;" d="M1642.566,976.67h-80.939v-88.427c0-20.968,16.998-37.966,37.966-37.966h7.204
				c19.755,0,35.77,16.015,35.77,35.77V976.67z"/>
			<g>
				<g>
					<path style="fill:#FFFFFF;" d="M1606.8,847.39h-7.21c-22.52,0-40.85,18.32-40.85,40.85v91.32h86.72v-93.51
						C1645.46,864.73,1628.11,847.39,1606.8,847.39z M1599.59,853.17h7.21c18.13,0,32.88,14.75,32.88,32.88v87.73h-75.16v-85.54
						c0-0.33,0-0.66,0.01-0.98C1565.06,868.37,1580.58,853.17,1599.59,853.17z"/>
				</g>
				<rect x="1562.258" y="887.261" style="fill:#FFFFFF;" width="78.992" height="5.459"/>
				<rect x="1599.099" y="889.991" style="fill:#FFFFFF;" width="5.311" height="86.216"/>
			</g>
			<g>
				<path style="fill:#DDAF8A;" d="M1581.81,816.945c0,0,17.289-5.793,44.07,0l-9.312,23.177c0,0-12.779-1.711-25.368,0
					L1581.81,816.945z"/>
				<path style="fill:#DDAF8A;" d="M1587.789,840.679l-10.075-19.658c0,0-10.992,2.248-14.969,6.536l16.735,15.191L1587.789,840.679
					z"/>
				<path style="fill:#DDAF8A;" d="M1619.855,840.778l9.181-19.439c0,0,9.567,0.955,14.969,6.536l-16.6,14.872L1619.855,840.778z"/>
			</g>
		</g>
		<g>
			<g>
				<path style="fill:#DDAF8A;" d="M2029.249,936.489h-106.715V819.901c0-27.646,22.411-50.056,50.056-50.056h9.498
					c26.047,0,47.161,21.115,47.161,47.161V936.489z"/>
				<g>
					<g>
						<path style="fill:#FFFFFF;" d="M1982.09,766.04h-9.5c-29.7,0-53.87,24.16-53.87,53.86v120.4h114.34V817.01
							C2033.06,788.9,2010.189,766.04,1982.09,766.04z M1972.59,773.66h9.5c23.9,0,43.35,19.44,43.35,43.35v115.67h-99.1V819.9
							c0-0.43,0.01-0.86,0.021-1.29C1927.04,793.7,1947.52,773.66,1972.59,773.66z"/>
					</g>
					<rect x="1923.366" y="818.608" style="fill:#FFFFFF;" width="104.146" height="7.197"/>
					<rect x="1971.938" y="822.206" style="fill:#FFFFFF;" width="7.002" height="113.672"/>
				</g>
			</g>
			<g>
				<path style="fill:#DDAF8A;" d="M2115.104,937.47h-79.216v-86.543c0-20.521,16.636-37.157,37.157-37.157h7.05
					c19.335,0,35.009,15.673,35.009,35.008V937.47z"/>
				<g>
					<g>
						<path style="fill:#FFFFFF;" d="M2080.09,810.94h-7.05c-22.04,0-39.98,17.94-39.98,39.99v89.37h84.87v-91.52
							C2117.93,827.91,2100.96,810.94,2080.09,810.94z M2073.04,816.6h7.05c17.75,0,32.18,14.43,32.18,32.18v85.86h-73.55v-83.71
							c0-0.32,0-0.64,0.011-0.96C2039.24,831.48,2054.439,816.6,2073.04,816.6z"/>
					</g>
					<rect x="2036.505" y="849.967" style="fill:#FFFFFF;" width="77.31" height="5.342"/>
					<rect x="2072.561" y="852.638" style="fill:#FFFFFF;" width="5.197" height="84.379"/>
				</g>
			</g>
			<g>
				<path style="fill:#DDAF8A;" d="M1915.896,937.47h-79.215v-86.543c0-20.521,16.636-37.157,37.157-37.157h7.05
					c19.334,0,35.008,15.673,35.008,35.008V937.47z"/>
				<g>
					<g>
						<path style="fill:#FFFFFF;" d="M1880.89,810.94h-7.05c-22.05,0-39.99,17.94-39.99,39.99v89.37h84.87v-91.52
							C1918.72,827.91,1901.75,810.94,1880.89,810.94z M1873.84,816.6h7.05c17.74,0,32.181,14.43,32.181,32.18v85.86h-73.561v-83.71
							c0-0.32,0-0.64,0.01-0.96C1840.03,831.48,1855.23,816.6,1873.84,816.6z"/>
					</g>
					<rect x="1837.298" y="849.967" style="fill:#FFFFFF;" width="77.309" height="5.342"/>
					<rect x="1873.354" y="852.638" style="fill:#FFFFFF;" width="5.197" height="84.379"/>
				</g>
			</g>
		</g>
		<g>
			<path style="fill:#DDAF8A;" d="M2415.559,976.67h-80.939v-88.427c0-20.968,16.998-37.966,37.966-37.966h7.204
				c19.755,0,35.77,16.015,35.77,35.77V976.67z"/>
			<g>
				<g>
					<path style="fill:#FFFFFF;" d="M2379.79,847.39h-7.21c-22.52,0-40.85,18.32-40.85,40.85v91.32h86.72v-93.51
						C2418.45,864.73,2401.109,847.39,2379.79,847.39z M2372.58,853.17h7.21c18.13,0,32.88,14.75,32.88,32.88v87.73h-75.16v-85.54
						c0-0.33,0-0.66,0.01-0.98C2338.05,868.37,2353.57,853.17,2372.58,853.17z"/>
				</g>
				<rect x="2335.25" y="887.261" style="fill:#FFFFFF;" width="78.991" height="5.459"/>
				<rect x="2372.091" y="889.991" style="fill:#FFFFFF;" width="5.311" height="86.216"/>
			</g>
			<g>
				<path style="fill:#DDAF8A;" d="M2354.802,816.945c0,0,17.289-5.793,44.07,0l-9.312,23.177c0,0-12.779-1.711-25.368,0
					L2354.802,816.945z"/>
				<path style="fill:#DDAF8A;" d="M2360.781,840.679l-10.075-19.658c0,0-10.991,2.248-14.969,6.536l16.735,15.191L2360.781,840.679
					z"/>
				<path style="fill:#DDAF8A;" d="M2392.848,840.778l9.181-19.439c0,0,9.567,0.955,14.969,6.536l-16.6,14.872L2392.848,840.778z"/>
			</g>
		</g>
		<g>
			<path style="fill:#DDAF8A;" d="M2675.892,976.67h-80.939v-88.427c0-20.968,16.998-37.966,37.966-37.966h7.204
				c19.755,0,35.77,16.015,35.77,35.77V976.67z"/>
			<g>
				<g>
					<path style="fill:#FFFFFF;" d="M2640.12,847.39h-7.2c-22.53,0-40.859,18.32-40.859,40.85v91.32h86.72v-93.51
						C2678.78,864.73,2661.439,847.39,2640.12,847.39z M2632.92,853.17h7.2c18.13,0,32.88,14.75,32.88,32.88v87.73h-75.16v-85.54
						c0-0.33,0-0.66,0.01-0.98C2598.38,868.37,2613.91,853.17,2632.92,853.17z"/>
				</g>
				<rect x="2595.583" y="887.261" style="fill:#FFFFFF;" width="78.992" height="5.459"/>
				<rect x="2632.424" y="889.991" style="fill:#FFFFFF;" width="5.311" height="86.216"/>
			</g>
			<g>
				<path style="fill:#DDAF8A;" d="M2615.135,816.945c0,0,17.289-5.793,44.07,0l-9.313,23.177c0,0-12.777-1.711-25.367,0
					L2615.135,816.945z"/>
				<path style="fill:#DDAF8A;" d="M2621.114,840.679l-10.075-19.658c0,0-10.991,2.248-14.968,6.536l16.734,15.191L2621.114,840.679
					z"/>
				<path style="fill:#DDAF8A;" d="M2653.182,840.778l9.18-19.439c0,0,9.568,0.955,14.969,6.536l-16.6,14.872L2653.182,840.778z"/>
			</g>
		</g>
		<g>
			<path style="fill:#DDAF8A;" d="M2675.892,1297.99h-80.939v-88.428c0-20.968,16.998-37.966,37.966-37.966h7.204
				c19.755,0,35.77,16.015,35.77,35.771V1297.99z"/>
			<g>
				<g>
					<path style="fill:#FFFFFF;" d="M2640.12,1168.71h-7.2c-22.53,0-40.859,18.32-40.859,40.851v91.319h86.72v-93.51
						C2678.78,1186.05,2661.439,1168.71,2640.12,1168.71z M2632.92,1174.49h7.2c18.13,0,32.88,14.75,32.88,32.88v87.729h-75.16
						v-85.539c0-0.33,0-0.66,0.01-0.98C2598.38,1189.689,2613.91,1174.49,2632.92,1174.49z"/>
				</g>
				<rect x="2595.583" y="1208.582" style="fill:#FFFFFF;" width="78.992" height="5.458"/>
				<rect x="2632.424" y="1211.311" style="fill:#FFFFFF;" width="5.311" height="86.217"/>
			</g>
			<g>
				<path style="fill:#DDAF8A;" d="M2615.135,1138.266c0,0,17.289-5.793,44.07,0l-9.313,23.177c0,0-12.777-1.711-25.367,0
					L2615.135,1138.266z"/>
				<path style="fill:#DDAF8A;" d="M2621.114,1161.999l-10.075-19.657c0,0-10.991,2.248-14.968,6.535l16.734,15.191
					L2621.114,1161.999z"/>
				<path style="fill:#DDAF8A;" d="M2653.182,1162.099l9.18-19.438c0,0,9.568,0.955,14.969,6.535l-16.6,14.873L2653.182,1162.099z"
					/>
			</g>
		</g>
		<polygon style="fill:#ED7D2B;" points="1729.494,730.74 948.492,730.74 1016.05,672.106 1729.494,672.106 		"/>
		<path style="fill:#ED7D2B;" d="M2792.47,672.11c-3.149,19.05-7.38,38.59-12.729,58.63h-562.93v-58.63H2792.47z"/>
		<rect x="1562.065" y="1081.953" style="fill:#FFF2E6;" width="849.009" height="28.797"/>
		<polygon style="fill:#F49540;" points="1731.6,596.715 1701.372,596.715 1974.206,367.106 2249.546,596.715 		"/>
		<polygon style="fill:#FFF2E6;" points="1562.065,1081.953 1986.57,1000.46 2411.074,1081.953 		"/>
		<polygon style="fill:#F2CCAA;" points="1683.752,1081.953 1986.57,1023.82 2289.389,1081.953 		"/>
		<polygon style="fill:#F9DDBF;" points="2216.813,626.626 1731.6,626.626 1731.6,596.715 1973.294,397.332 2216.813,596.715 		"/>
		<path style="fill:#DBA579;" d="M1962.733,461.445c0-7.267,5.892-13.158,13.158-13.158s13.158,5.891,13.158,13.158
			c0,7.267-5.892,13.158-13.158,13.158S1962.733,468.712,1962.733,461.445z"/>
		<circle style="fill:#DBA579;" cx="1975.892" cy="1161.242" r="13.158"/>
		<g>
			<rect x="1573.603" y="1442.846" style="fill:#FFF2E6;" width="800.774" height="12.365"/>
			<rect x="1527.146" y="1455.211" style="fill:#F7E6D7;" width="893.685" height="12.364"/>
			<rect x="1478.72" y="1467.575" style="fill:#F4DDCB;" width="990.54" height="17.07"/>
		</g>
		<g>
			<path style="fill:#DDAF8A;" d="M2016.361,706.331h-80.939v-88.427c0-20.968,16.998-37.966,37.966-37.966h7.204
				c19.755,0,35.77,16.015,35.77,35.77V706.331z"/>
			<g>
				<g>
					<path style="fill:#FFFFFF;" d="M2014.25,596.71c-6.64-11.73-19.24-19.66-33.66-19.66h-7.2c-14.77,0-27.739,7.88-34.92,19.66
						c-3.77,6.18-5.939,13.44-5.939,21.19v91.32h86.72v-93.51C2019.25,608.81,2017.439,602.32,2014.25,596.71z M2013.47,703.44
						h-75.16V617.9c0-0.33,0-0.66,0.011-0.98c0.21-7.58,2.84-14.57,7.14-20.21c6.41-8.43,16.55-13.88,27.93-13.88h7.2
						c11.061,0,20.86,5.49,26.82,13.88c3.81,5.36,6.06,11.92,6.06,19V703.44z"/>
				</g>
				<rect x="1936.053" y="616.922" style="fill:#FFFFFF;" width="78.992" height="5.458"/>
				<rect x="1972.894" y="619.652" style="fill:#FFFFFF;" width="5.311" height="86.216"/>
			</g>
			<g>
				<path style="fill:#DDAF8A;" d="M1955.604,546.606c0,0,17.289-5.793,44.07,0l-9.312,23.176c0,0-12.779-1.711-25.367,0
					L1955.604,546.606z"/>
				<path style="fill:#DDAF8A;" d="M1961.584,570.34l-10.075-19.658c0,0-10.991,2.248-14.969,6.536l16.735,15.191L1961.584,570.34z"
					/>
				<path style="fill:#DDAF8A;" d="M1993.65,570.44l9.181-19.439c0,0,9.567,0.955,14.969,6.536l-16.6,14.873L1993.65,570.44z"/>
			</g>
		</g>
	</g>
	<path style="fill:#9BCC8F;" d="M632.693,1500.972c0,0-298.052-0.968-412.114-0.551c-0.771-3.233-1.518-6.503-2.266-9.785
		c-0.367-1.567-0.723-3.147-1.09-4.727c-0.012-0.024-0.012-0.062-0.024-0.086c-2.878-12.602-5.744-25.729-8.426-38.87
		c-11.242-54.189-20.77-112.495-26.391-172.306c23.795-6.81,119.818-31.045,181.919,1.641
		c71.323,37.535,59.468,93.305,128.268,77.617C561.37,1338.218,675.861,1397.196,632.693,1500.972z"/>
	<path style="fill:#A8D29F;" d="M3062.859,1554.979c-1.15,20.365-4.176,41.895-9.344,64.71c-0.49,2.094-1.004,4.2-1.53,6.318
		c-1.604,6.527-3.356,13.153-5.254,19.778c-2.266,8.793-5.267,18.088-8.536,27.37c-0.539,1.617-4.886,12.137-10.287,25.068
		c-14.12,33.776-47.148,55.771-83.752,55.771h-238.363l-87.365-0.245H1836.13l-127.153-0.147l-101.303-0.109h-602.288
		l-251.564-0.245H384.067c-51.802,0-97.934-32.869-114.81-81.854c-1.445-4.201-2.792-8.169-3.992-11.794
		c-4.666-14.45-9.638-30.358-14.769-47.528c-4.96-16.617-10.054-34.412-15.149-53.223c-1.237-4.604-2.486-9.258-3.723-13.984
		c-4.519-17.329-9.038-35.404-13.312-54.228c-0.367-1.567-0.723-3.147-1.09-4.727c-0.012-0.024-0.012-0.062-0.024-0.086h2841.962
		c0,0.024,0.013,0.062,0.013,0.086C3062.859,1507.401,3064.231,1530.339,3062.859,1554.979z"/>
	<polygon style="fill:#F9DDBF;" points="1666.51,1588.829 1504.612,1753.492 1707.93,1753.492 1834.196,1612.066 	"/>
	<g>
		<polygon style="fill:#FFB27D;" points="1721.424,1420.684 1719.914,1427.035 1717.91,1435.458 1711.649,1435.458 
			1711.277,1427.389 1710.988,1421.166 		"/>
		<path style="fill:#BC3F3F;" d="M1741.264,1282.434c0,0,4.953-5.301,8.175-1.144c3.221,4.156,6.79,6.962,11.733,10.159
			c4.942,3.196-4.368,28.254-10.56,27.738S1719.158,1298.918,1741.264,1282.434z"/>
		<path style="fill:#ED7D2B;" d="M1716.597,1279.914c1.236-0.925,12.622-4.834,23.723-0.989s-8.599,14.554-8.599,14.554
			l-6.384,0.274L1716.597,1279.914z"/>
		<path style="fill:#233862;" d="M1709.174,1444.711c0,0,0-3.064,0.438-4.084c0.437-1.02,2.038-5.169,2.038-5.169h6.261
			c0,0,1.165,3.786,1.237,5.023c0.073,1.237,0,4.229,0,4.229H1709.174z"/>
		<path style="fill:#233862;" d="M1748.927,1444.711c0,0,0-3.064-0.437-4.084c-0.438-1.02-2.039-5.169-2.039-5.169h-6.261
			c0,0-1.165,3.786-1.237,5.023c-0.073,1.237,0,4.229,0,4.229H1748.927z"/>
		<path style="fill:#FFB27D;" d="M1723.844,1272.674c0,0-0.221,6.825-1.095,9.883l-6.914,14.903l26.027-6.186l-6.207-8.576
			c0,0-1.874-9.151-0.892-12.536C1735.747,1266.776,1723.844,1272.674,1723.844,1272.674z"/>
		<path style="fill:#ED985F;" d="M1723.806,1273.616c0-0.002,2.058,4.954,5.935,4.845c3.877-0.108,4.76-4.492,4.76-4.492
			L1723.806,1273.616z"/>
		<path style="fill:#2C3A64;" d="M1721.492,1269.604c0,0-1.252-6.249-2.126-8.143c-0.874-1.893-1.602-10.338,8.081-10.774
			c0,0,3.713,0.437,5.751-0.801c0,0,0,1.237-0.509,1.675c0,0,3.349-0.801,5.969,2.11c2.621,2.912-1.746,13.105-1.528,15.508
			L1721.492,1269.604z"/>
		<path style="fill:#FFB27D;" d="M1729.296,1276.547c-2.809-0.05-7.979-3.79-7.979-8.422v-7.228c0-1.691,1.179-3.075,2.621-3.075
			h10.716c1.441,0,2.621,1.384,2.621,3.075v6.818C1737.275,1272.573,1732.518,1276.604,1729.296,1276.547z"/>
		<path style="fill:#2C3A64;" d="M1721.317,1264.757c0,0,0.015-4.343,3.454-5.011c3.44-0.668,11.139,2.116,12.23-1.051
			c1.093-3.166-14.881-3.111-15.685-1.092C1720.513,1259.624,1721.317,1264.757,1721.317,1264.757z"/>
		<path style="fill:#2B478B;" d="M1733.311,1340.021c1.724-5.363,1.689,22.2-5.228,53.204c-1.056,4.732-3.42,16.143-5.116,27.186
			h-14.172c-0.195-8.918-1.151-21.366-1.754-30.689c-1.887-29.227,2.918-51.158,2.918-51.158L1733.311,1340.021z"/>
		<path style="fill:#2B478B;" d="M1751.496,1389.72c-0.156,8.936-1.971,20.807-2.136,29.508h-14.377
			c-0.966-6.316-2.5-12.82-3.603-18.067c-0.784-3.726-1.351-6.817-1.342-8.759c0.016-3.796-2.385-14.74-3.814-24.391
			c-0.002-0.015-0.004-0.026-0.006-0.039c-0.056-0.37-0.109-0.741-0.161-1.108c-1.915-13.565-1.239-26.843-1.239-26.843
			l24.258-1.516C1749.076,1338.505,1751.912,1365.888,1751.496,1389.72z"/>
		<path style="fill:#233862;" d="M1708.037,1349.803c0,0,5.458,6.613,20.286,5.658c14.828-0.954,21.902-3.534,21.902-3.534
			L1708.037,1349.803z"/>
		<path style="fill:#F99746;" d="M1750.226,1351.927c-4.844,0.659-37.795,2.37-42.188-2.124c-4.393-4.495,7.172-65.81,7.172-65.81
			s1.31-0.379,3.52-0.795c1.126-0.212,2.485-0.433,4.023-0.618c0.019,0.479,0.399,7.707,6.401,10.693c0,0,7.208-2.888,6.501-10.576
			c-0.008-0.09-0.018-0.177-0.03-0.264c0.962,0.104,1.936,0.237,2.914,0.406c1.977,0.34,3.979,0.819,5.964,1.477
			C1744.502,1284.316,1755.069,1351.27,1750.226,1351.927z"/>
		<path style="fill:#F99746;" d="M1708.315,1320.271c-0.195,0.255,1.118,2.142,2.972,4.567c3.813,4.983,9.911,12.236,9.911,12.236
			c-0.081,2.458-0.425,4.044-0.425,4.044c-8.378-3.959-14.042-7.661-17.797-10.635c-5.278-4.182-6.792-6.926-6.792-6.926
			c8.464-35.806,19.323-39.534,19.323-39.534l3.544,21.576C1719.052,1305.601,1708.908,1319.495,1708.315,1320.271z"/>
		<path style="fill:#FFFFFF;" d="M1738.538,1282.84l-2.183,6.64l-2.91,4.273l-4.177,2.266l-3.932-2.266l-6.608-10.555
			c1.126-0.212,2.485-0.433,4.023-0.618c0.009,0.226,0.099,1.306,0.819,2.698c2.385,4.607,9.121,4.647,11.479,0.026
			c0.404-0.793,0.642-1.665,0.604-2.607c-0.003-0.091-0.018-0.177-0.03-0.264C1736.586,1282.537,1737.56,1282.671,1738.538,1282.84z
			"/>
		<path style="fill:#FFB27D;" d="M1721.199,1337.075c-0.002,0.07-0.004,0.139-0.008,0.206c-0.019,0.453-0.046,0.878-0.078,1.263
			c-0.211,0.29-0.443,0.564-0.696,0.819c-0.386,0.39-0.802,0.717-1.226,0.993c-0.212-0.101-0.424-0.206-0.632-0.31
			c-7.176-3.552-12.168-6.857-15.582-9.562c2.166-0.667,5.202-2.191,8.31-5.647
			C1715.1,1329.822,1721.199,1337.075,1721.199,1337.075z"/>
		<path style="fill:#F99746;" d="M1762.804,1322.242c0,0-1.461,2.772-6.658,7.055c-3.697,3.045-9.29,6.855-17.59,10.974
			c0,0-0.374-1.579-0.503-4.036c0,0,5.959-7.367,9.676-12.423c1.807-2.462,3.084-4.373,2.884-4.624
			c-0.472-0.594-6.83-8.957-9.667-12.687c-0.823-1.084-1.349-1.775-1.349-1.775l3.592-21.214
			C1743.188,1283.512,1753.656,1286.605,1762.804,1322.242z"/>
		<path style="fill:#FFB27D;" d="M1756.145,1329.297c-3.373,2.776-8.324,6.191-15.469,9.898c-0.177,0.09-0.356,0.183-0.537,0.275
			c-0.913-1.102-1.467-2.414-1.805-3.583c0.119-0.148,0.274-0.345,0.464-0.577c1.711-2.136,6.011-7.531,8.93-11.5
			C1750.899,1327.207,1753.966,1328.671,1756.145,1329.297z"/>
		<path style="fill:#FFB27D;" d="M1735.624,1282.434c-4.807-0.515-9.317-0.279-12.872,0.146c-0.002-0.017-0.002-0.024-0.002-0.024
			S1734.664,1275.187,1735.624,1282.434z"/>
		<g>
			<g>
				<polygon style="fill:#ED7D2B;" points="1723.675,1303.273 1723.431,1303.273 1723.25,1291.789 1723.868,1291.789 				"/>
			</g>
			<path style="fill:#ED7D2B;" d="M1723.406,1302.975c-0.223,0.336-0.724,1.447-0.391,1.564c0.332,0.117,0.915,0.124,1.071-0.032
				S1723.826,1302.341,1723.406,1302.975z"/>
		</g>
		<g>
			<g>
				<polygon style="fill:#ED7D2B;" points="1734.953,1303.273 1734.709,1303.273 1734.528,1291.789 1735.146,1291.789 				"/>
			</g>
			<path style="fill:#ED7D2B;" d="M1734.684,1302.975c-0.223,0.336-0.723,1.447-0.391,1.564s0.915,0.124,1.071-0.032
				C1735.521,1304.351,1735.104,1302.341,1734.684,1302.975z"/>
		</g>
		<path style="fill:#ED7D2B;" d="M1725.337,1293.753l-10.128-9.76c0,0-2.28-1.619,1.324-4.039
			C1720.137,1277.534,1725.337,1293.753,1725.337,1293.753z"/>
		<path style="fill:#ED7D2B;" d="M1733.444,1293.753l10.128-9.76c0,0,2.28-1.619-1.323-4.039
			C1738.645,1277.534,1733.444,1293.753,1733.444,1293.753z"/>
		<g>
			<path style="fill:#ED7D2B;" d="M1746.156,1341.267c-1.973,0.167-3.619-0.327-4.89-1.462c-0.214-0.191-0.409-0.396-0.591-0.609
				c-1.001-1.17-1.563-2.643-1.878-3.885c-0.362-1.419-0.402-2.535-0.402-2.558l-0.008-0.286h-16.358l0.011,0.305
				c0.063,1.759-0.221,3.269-0.849,4.51c-0.312,0.622-0.709,1.176-1.19,1.662c-0.445,0.449-0.938,0.812-1.441,1.104
				c-2.189,1.27-4.626,1.22-4.657,1.22l-0.303-0.011v6.912h32.875v-6.928L1746.156,1341.267z"/>
		</g>
		<path style="fill:#ED7D2B;" d="M1750.612,1319.188c0,0-9.118-11.965-1.9-15.449c2.865-1.383,6.899,15.037,4.736,16.582
			c-2.162,1.544-5.721,3.49-5.721,3.49L1750.612,1319.188z"/>
		<path style="fill:#ED7D2B;" d="M1709.365,1317.215c0,0,3.168-15.023,0.388-13.477c-2.78,1.548-6.899,15.037-4.737,16.582
			c2.163,1.544,5.722,3.49,5.722,3.49L1709.365,1317.215z"/>
		<g>
			<path style="fill:#BC3F3F;" d="M1749.334,1319.152c-4.164-5.169-5.72-13.563-5.508-22.225c0.16-6.504,1.052-12.374,1.109-12.58
				l3.416,2.66c-0.014,0.049-1.961,3.607-2.111,9.938c-0.138,5.788-0.412,10.194,2.859,20.27L1749.334,1319.152z"/>
		</g>
		<path style="fill:#233862;" d="M1717.717,1423.605l-7.337-0.004c-0.649,0.073-1.666-0.878-1.666-2.236c0,0-0.015-3.26-0.23-3.839
			c-0.943-2.54,0.46-2.677,1.819-2.677h13.387c1.359,0-0.723,4.201-0.723,5.561l0.481,1.781
			C1723.448,1423.551,1719.076,1423.605,1717.717,1423.605z"/>
		<path style="fill:#FFFFFF;" d="M1719.914,1427.035l-2.004,8.423h-6.261l-0.372-8.069
			C1712.21,1427.731,1715.351,1428.606,1719.914,1427.035z"/>
		<polygon style="fill:#FFB27D;" points="1736.688,1420.684 1738.198,1427.035 1740.202,1435.458 1746.463,1435.458 
			1746.836,1427.389 1747.124,1421.166 		"/>
		<path style="fill:#233862;" d="M1740.396,1423.605l7.337-0.004c0.649,0.073,1.666-0.878,1.666-2.236c0,0,0.016-3.26,0.23-3.839
			c0.944-2.54-0.46-2.677-1.819-2.677h-13.386c-1.359,0,0.723,4.201,0.723,5.561l-0.482,1.781
			C1734.664,1423.551,1739.036,1423.605,1740.396,1423.605z"/>
		<path style="fill:#FFFFFF;" d="M1738.198,1427.035l2.004,8.423h6.261l0.373-8.069
			C1745.902,1427.731,1742.762,1428.606,1738.198,1427.035z"/>
		<path style="fill:#FFFFFF;" d="M1726.629,1271.505c0,0,0.971,1.314,2.667,1.268s2.494-1.268,2.494-1.268
			S1728.928,1271.036,1726.629,1271.505z"/>
	</g>
	<g>
		<path style="fill:#E8945B;" d="M1880.369,1344.198c0,0-3.569,38.509,4.389,59.484c2.199,5.797,26.621,28.414,30.456,35.99
			c0,0,5.248-4.557,4.568-5.64c-3.526-5.62-8.289-22.992-18.909-34.538c-10.619-11.547,2.197-41.408,2.197-41.408L1880.369,1344.198
			z"/>
		<path style="fill:#FFB27D;" d="M1883.406,1332.308c-10.041-2.556-21.078-18.132-21.078-18.132l2.828-2.453
			c2.927,3.451,15.097,9.395,15.097,9.395c-0.065-3.158,0.018-6.038,0.217-8.66c1.351-17.818,8.067-23.755,9.901-25.058
			c0.295-0.211,0.465-0.3,0.465-0.3s0.008,0.13,0.018,0.375c0.027,0.529,0.076,1.596,0.126,3.061
			C1891.352,1301.44,1891.797,1334.444,1883.406,1332.308z"/>
		<path style="fill:#FFB27D;" d="M1865.156,1311.723c-0.043-0.421,0.183-5.937-1.637-7.057c-1.435-0.883-3.522-3.403-4.212-3.275
			c-0.69,0.129-2.587,4.172-1.48,6.856s4.501,5.929,4.501,5.929L1865.156,1311.723z"/>
		<path style="fill:#FFB27D;" d="M1890.013,1455.018l5.108-0.595c0,0,13.344-27.49,11.54-44.551
			c-0.415-3.925-0.086-7.89,1.091-11.656c1.275-4.077,2.904-9.498,4.295-14.794c0.849-3.218,1.678-6.605,2.418-10.029
			c0.991-4.574,1.824-9.206,2.335-13.567c0.848-7.252,0.802-13.747-0.919-17.964l-23.054-2.307c0,0-1.983,18.485-2.534,36.846
			c-0.034,1.145-0.063,2.29-0.084,3.428c-0.193,10.029,1.307,18.356,2.292,25.649c0.306,2.271,0.386,4.561,0.239,6.846
			L1890.013,1455.018z"/>
		<path style="fill:#233862;" d="M1898.735,1267.278c0,0,5.399,4.597,0.449,9.889c0,0,4.125,0.405,5.521-0.737
			c0,0-0.274,0.557-0.529,0.807c0,0,4.612,0.166,6.517-1.272s0.681-25.036-12.121-22.397c0,0-10.85-0.819-9.839,11.735
			s-3.086,12.555-3.086,12.555s1.14,0.562,1.689,0.562c0,0,0.804-0.307,0.963-0.751c0,0-0.159,0.698-0.365,0.921
			c0,0,4.422,0.418,6.63-1.251S1899.366,1269.868,1898.735,1267.278z"/>
		<path style="fill:#FFB27D;" d="M1882.473,1294.809h29.582c-2.116-5.302-5.147-9.137-7.448-9.606
			c-1.227-0.325-3.309-4.759-3.284-11.902l-0.551,0.108l-9.291,1.84c0,0,0.21,2.925,0.219,5.68c0.006,2.295-0.118,4.63-0.639,4.904
			c-0.669,0.059-1.276,0.182-1.276,0.182S1884.743,1289.552,1882.473,1294.809z"/>
		<path style="fill:#E8945B;" d="M1891.48,1275.248c0,0,0.211,2.924,0.218,5.678c5.198-0.146,7.946-4.889,9.072-7.518
			L1891.48,1275.248z"/>
		<path style="fill:#233862;" d="M1901.73,1272.397c0,0,2.725-4.306,3.378-7.986c0.467-2.628-0.871-12.368-10.66-10.966
			c0,0-2.843,0.28-5.515,2.085c-2.126,1.436-5.193,4.534-1.764,13.034l0.891,2.872L1901.73,1272.397z"/>
		<path style="fill:#FFB27D;" d="M1889.744,1277.856c0,0,12.3,0.202,12.309-7.459c0.009-7.662,1.602-12.796-6.251-13.25
			c-7.853-0.453-9.382,2.469-10.007,5.025S1886.545,1277.605,1889.744,1277.856z"/>
		<path style="fill:#233862;" d="M1890.199,1256.96c0,0,3.368,8.989,8.536,10.318c5.169,1.329,7.411-0.056,7.411-0.056
			s-3.965-3.149-4.787-8.647C1901.359,1258.575,1892.74,1252.682,1890.199,1256.96z"/>
		<path style="fill:#233862;" d="M1891.034,1257.689c0,0-2.515,2.007-3.128,3.958s-0.889,5.968-2.06,5.831
			c0,0-2.537-6.109,0.313-9.565C1889.184,1254.248,1891.034,1257.689,1891.034,1257.689z"/>
		<path style="fill:#FFB27D;" d="M1932.157,1353.354l-3.692,1.107c0,0-12.182-20.211-13.289-25.47
			c-0.361-1.713-1.247-5.139-2.28-8.978c-2.14-7.949-4.899-17.677-4.899-17.677l-0.909-3.938l-3.101-13.429
			c0,0,5.937,0.607,9.41,2.06c1.149,0.479,2.026,1.053,2.333,1.725c2.552,5.609,5.098,19.767,6.889,29.866
			c0.997,5.629,1.759,9.998,2.156,10.924C1925.882,1332.129,1929.266,1346.341,1932.157,1353.354z"/>
		<path style="fill:#233862;" d="M1890.567,1257.993c0,0,2.399,9.413,8.921,12.428c0,0-6.521-5.783-7.075-11.997
			C1891.859,1252.211,1890.567,1257.993,1890.567,1257.993z"/>
		<path style="fill:#FFFFFF;" d="M1891.357,1310.923c-0.521,12.712-2.422,25.299-7.956,24.489c-6.784-0.99-8.551-7.322-8.911-12.029
			c-0.224-2.93,0.1-5.229,0.1-5.229s3.338-0.015,3.879-0.513c2.563-2.368,1.803-25.598,3.071-28.01
			c1.27-2.412,9.505-3.961,9.505-3.961S1891.876,1298.359,1891.357,1310.923z"/>
		<path style="fill:#2B478B;" d="M1922.731,1370.08c0,0-4.842,1.689-11.974,2.805c-8.831,1.38-21.177,1.877-32.201-2.805
			c0,0-0.908-18.539,1.704-28.202c2.612-9.666,3.833-14.29,3.833-14.29s10.466,2.966,21.096,0.666
			c1.493-0.32,2.988-0.748,4.458-1.302c0,0,6.558,15.73,8.36,22.472C1919.811,1356.164,1922.731,1370.08,1922.731,1370.08z"/>
		<path style="fill:#FFFFFF;" d="M1933.5,1334.566c0,3.193-3.257,5.156-6.753,6.11c-3.361,0.919-6.94,0.906-8.06,0.157
			c-1.933-1.295-5.08-15.688-6-20.07c-0.164-0.795-0.259-1.26-0.259-1.26s-2.511,5.991-2.589,6.55
			c-0.036,0.252-0.066,0.597-0.089,0.901c-0.026,0.368-0.041,0.673-0.041,0.673s-13.625,6.878-25.552,0.562
			c0,0-4.85-28.022-2.745-32.847c1.046-2.396,6.502-7.342,8.686-9.475c0.489-0.479,0.441-1.429,0.251-2.297
			c-0.157-0.734,0.503-1.379,1.229-1.191c1.404,0.366,3.93,0.303,6.637-0.586c1.348-0.439,2.739-1.084,4.057-1.982
			c0.383-0.262,0.904-0.021,0.962,0.438c0.206,1.671,0.711,4.723,1.633,4.723c1.27-0.008,9.932,1.056,10.566,2.127
			c0.221,0.373,2.473,5.469,5.315,12.219c0,0,0.003,0.006,0.006,0.018C1926.09,1312,1933.5,1330.481,1933.5,1334.566z"/>
		<path style="fill:#ECF3FE;" d="M1912.429,1319.504c0,0-2.511,5.991-2.589,6.55c-0.036,0.252-0.066,0.597-0.089,0.901
			c-1.214,0.99-2.682,1.742-4.177,2.196c-4.247,1.287-6.093-6.854-5.839-10.917c0.254-4.062,6.261-15.656,8.261-15.897
			C1909.994,1302.099,1912.429,1319.504,1912.429,1319.504z"/>
		<path style="fill:#E58638;" d="M1912.688,1320.764c-0.164-0.795-0.259-1.26-0.259-1.26
			C1912.561,1319.934,1912.647,1320.352,1912.688,1320.764z"/>
		<path style="fill:#D36C26;" d="M1941.307,1369.09c-0.256-1.286-1.16-2.331-2.389-2.787c-1.994-0.739-5.258-1.406-9.271-0.227
			c-6.774,1.991-7.438,6.155-6.989,9.149c0.448,2.995-0.88,7.768-0.685,11.164c0.194,3.396,1.167,11.927,6.183,11.479
			c5.017-0.448,21.184-4.794,21.184-4.794s2.793-5.315-2.944-13.015C1942.991,1375.493,1941.753,1371.332,1941.307,1369.09z"/>
		<g>
			<g>
				<path style="fill:#D37129;" d="M1938.202,1365.165l-1.342,0.121c0-0.002-0.154-0.928-0.77-1.511
					c-0.474-0.446-1.129-0.609-1.944-0.476c-0.773,0.123-1.329,0.478-1.61,1.049c-0.396,0.803-0.177,1.837-0.175,1.849l-1.308,0.303
					c-0.016-0.071-0.395-1.752,0.291-3.165c0.471-0.976,1.313-1.538,2.479-1.757c1.201-0.192,2.218,0.101,3.021,0.872
					C1937.953,1363.516,1938.192,1365.1,1938.202,1365.165z"/>
			</g>
			<path style="fill:#F99746;" d="M1952.664,1392.317c0,0-16.17,4.355-21.189,4.794c-5.016,0.456-5.992-8.074-6.176-11.482
				c-0.198-3.387,1.125-8.162,0.685-11.163c-0.092-0.567-0.143-1.197-0.103-1.831c0.13-2.671,1.626-5.706,7.08-7.308
				c4.024-1.186,7.279-0.509,9.281,0.23c1.223,0.457,2.137,1.498,2.391,2.78c0.059,0.262,0.112,0.58,0.184,0.894
				c0.576,2.384,1.908,6.082,4.904,10.082C1955.461,1387.005,1952.664,1392.317,1952.664,1392.317z"/>
			<path style="opacity:0.4;fill:#D86713;" d="M1927.74,1386.346l9.745-2.205c0,0,2.268,6.979-2.338,8.25
				C1930.542,1393.662,1928.632,1390.961,1927.74,1386.346z"/>
			<path style="fill:#D37129;" d="M1927.74,1386.346c0,0,2.248,2.167,5.286,1.403s4.459-3.608,4.459-3.608L1927.74,1386.346z"/>
			<path style="opacity:0.4;fill:#D86713;" d="M1939.463,1383.693l9.746-2.205c0,0,2.267,6.979-2.338,8.25
				C1942.266,1391.01,1940.354,1388.308,1939.463,1383.693z"/>
			<path style="fill:#D37129;" d="M1939.463,1383.693c0,0,2.249,2.167,5.287,1.402c3.038-0.764,4.459-3.607,4.459-3.607
				L1939.463,1383.693z"/>
			<path style="fill:#ED7D2B;" d="M1944.633,1368.338c0.059,0.262,0.112,0.58,0.184,0.894c-1.288,2.658-3.73,6.056-7.864,6.844
				c-7.029,1.37-11.071-3.44-11.071-3.44c0.13-2.671,1.626-5.706,7.08-7.308c4.024-1.186,7.279-0.509,9.281,0.23
				C1943.465,1366.015,1944.379,1367.056,1944.633,1368.338z"/>
			<path style="fill:#D86713;" d="M1937.052,1377.548L1937.052,1377.548c-0.44,0.1-0.882-0.179-0.981-0.619l-0.164-0.728
				c-0.1-0.439,0.179-0.881,0.619-0.98l0,0c0.439-0.1,0.881,0.179,0.98,0.619l0.165,0.727
				C1937.771,1377.007,1937.491,1377.448,1937.052,1377.548z"/>
		</g>
		<path style="fill:#FFB27D;" d="M1931.896,1352.739c0,0,1.122,2.646,2.292,3.384c1.168,0.738,2.279,2.51,2.522,3.938
			c0.444,2.62-1.563,4.245-3.04,4.245s-2.888-2.014-3.756-6.821c-0.048-0.265-1.449-3.022-1.449-3.022L1931.896,1352.739z"/>
		<g>
			<path style="fill:#B64C41;" d="M1895.271,1331.278c-7.753,0-10.949-2.669-11.186-2.851l-0.501-3.651
				c0.074,0.056,10.478,6.302,26.577,0.319l-0.341,2.767C1903.63,1330.163,1899.299,1331.278,1895.271,1331.278z"/>
		</g>
		<path style="fill:#FFB27D;" d="M1895.136,1455.176c0,0-0.579,1.924,0.048,3.383l-7.361,4.495l-8.671,2.256l-2.552-1.32
			c0,0,12.92-6.563,13.559-16.572C1890.656,1439.629,1895.136,1455.176,1895.136,1455.176z"/>
		<path style="fill:#1C468A;" d="M1888.802,1465.203c-4.188,0.551-2.848,1.309-8.526,2.82c-5.678,1.512-8.116,0.122-8.596-0.623
			c-0.428-0.66,2.164-1.959,4.92-3.411l0.049,0.045c0,0,4.164,1.047,8.738-0.604c3.729-1.345,7.23-3.922,9.797-4.871
			c0.386,0.822,0.776,1.664,0.935,2.576C1896.57,1463.724,1892.99,1464.652,1888.802,1465.203z"/>
		<path style="fill:#E8945B;" d="M1926.858,1436.902c2.16,1.124,0.83,4.281-1.121,7.674c-1.951,3.394-0.638,2.833-2.72,7.863
			s-4.477,6.043-5.295,5.978c-0.728-0.057-0.225-2.695,0.257-5.541c0.062-0.358,0.119-0.718,0.177-1.079
			c0.512-3.223-0.835-6.082-1.664-9.385c-0.785-3.128-5.988-8.965-5.988-8.965l2.631-6.964c0,0,4.597,5.388,6.647,7.55
			c1.206,1.272,3.14,1.784,4.654,2.107C1925.258,1436.319,1926.098,1436.506,1926.858,1436.902z"/>
		<path style="fill:#1C468A;" d="M1925.737,1444.576c-1.951,3.394-0.638,2.833-2.72,7.863s-4.477,6.043-5.295,5.978
			c-0.728-0.057-0.225-2.695,0.257-5.541l0.06-0.011c0,0,3.114-2.477,4.472-6.772c1.107-3.501,1.181-7.528,1.926-9.952
			c0.821,0.179,1.661,0.365,2.422,0.762C1929.019,1438.026,1927.688,1441.184,1925.737,1444.576z"/>
		<g>
			<polygon style="fill:#233862;" points="1856.904,1298.827 1857.086,1302.443 1857.326,1307.202 1857.524,1311.144 
				1864.092,1311.144 1864.302,1307.202 1864.56,1302.443 1864.753,1298.827 			"/>
			<polygon style="fill:#FFFFFF;" points="1856.451,1299.399 1865.156,1299.399 1864.908,1298.07 1856.605,1298.07 			"/>
			<polygon style="fill:#FFFFFF;" points="1859.951,1298.07 1857.923,1297.598 1857.644,1298.07 			"/>
			<polygon style="fill:#FFFFFF;" points="1857.086,1302.443 1857.326,1307.202 1864.302,1307.202 1864.56,1302.443 			"/>
		</g>
		<path style="fill:#FFB27D;" d="M1857.086,1302.443c0,0,1.778-1.346,2.06,0.474c0.137,0.885-1.845,3.793-1.845,3.793
			C1856.621,1306.097,1856.107,1302.881,1857.086,1302.443z"/>
	</g>
	<path style="fill:#F8FCFF;" d="M405.424,827.072c0,0,19.038-24.773,64.562-22.021c0,0,66.093-41.29,136.573-5.505
		c0,0,74.92-8.867,130.403,7.677c36.993,11.03,49.211,22.601,49.211,22.601L405.424,827.072z"/>
	<path style="fill:#F8FCFF;" d="M1854.588,293.295c0,0,15.954-24.773,54.106-22.02c0,0,55.39-41.29,114.455-5.505
		c0,0,62.786-8.867,109.284,7.677c31.002,11.03,41.241,22.601,41.241,22.601L1854.588,293.295z"/>
	<path style="fill:#F8FCFF;" d="M863.622,616.398c0,0,21.103-24.773,71.566-22.021c0,0,73.263-41.29,151.39-5.505
		c0,0,83.047-8.867,144.55,7.677c41.006,11.03,54.55,22.601,54.55,22.601L863.622,616.398z"/>
	<path style="fill:#F8FCFF;" d="M2761.856,413.643l-591.425-3.858c0,0,32.869-38.588,111.466-34.302
		c0,0,114.111-64.306,235.791-8.573c0,0,129.346-13.813,225.137,11.953c0.11,0.024,0.221,0.061,0.319,0.086
		C2749.953,390.142,2756.199,401.702,2761.856,413.643z"/>
	<path style="fill:#F8FCFF;" d="M818.557,528.169c0-8.761,7.102-15.863,15.863-15.863c8.761,0,15.862,7.102,15.862,15.863
		c0,8.761-7.102,15.863-15.862,15.863C825.659,544.032,818.557,536.93,818.557,528.169z"/>
	<path style="opacity:0.5;fill:#F8FCFF;" d="M661.658,893.49c0,0,12.452-16.203,42.228-14.403c0,0,43.229-27.006,89.327-3.601
		c0,0,49.002-5.799,85.292,5.021c24.195,7.214,32.186,14.782,32.186,14.782L661.658,893.49z"/>
	<path style="fill:#82B378;" d="M3059.174,1485.909l-721.028,0.151c0,0-6.467-60.967,46.609-73.557
		c53.075-12.589,24.762-49.07,64.868-68.322c40.095-19.251,97.885-11.144,112.042,34.388c14.146,45.532,57.791,4.054,110.854,0
		c53.076-4.054,67.747,24.554,76.919,39.874c9.185,15.333,82.296,24.506,116.5-16.973c34.204-41.467,58.966-50.614,96.709-50.884
		c10.079-0.062,18.309-4.177,26.023-10.189c6.638,8.034,13.019,16.239,19.142,24.714
		C3032.305,1399.768,3051.066,1440.549,3059.174,1485.909z"/>
	<path style="fill:#F9DDBF;" d="M2208.85,1580.781c0,29.059-213.109,52.615-475.994,52.615
		c-262.884,0-475.993-23.557-475.993-52.615s213.109-52.616,475.993-52.616C1995.74,1528.165,2208.85,1551.723,2208.85,1580.781z"/>
	<path style="fill:#F9DDBF;" d="M2276.625,1591.084c0,38.59-256.461,69.873-572.82,69.873c-316.36,0-572.82-31.283-572.82-69.873
		c0-38.591,256.46-69.874,572.82-69.874C2020.164,1521.21,2276.625,1552.493,2276.625,1591.084z"/>
	<path style="fill:#F9DDBF;" d="M3062.859,1554.979c-1.15,20.365-4.176,41.895-9.344,64.71c-0.49,2.094-1.004,4.2-1.53,6.318
		H2027.002l136.143-71.028H3062.859z"/>
	<path style="fill:#F9DDBF;" d="M1469.303,1551.843v60.228H250.497c-4.96-16.617-10.054-34.412-15.149-53.223L1469.303,1551.843z"/>
	<path style="fill:#82B378;" d="M2234.502,1554.979c-16.381,0-24.854-19.74-13.418-31.469c7.745-7.942,17.749-15.084,30.148-18.129
		c34.902-8.572,43.475,17.757,64.293,15.308c20.819-2.449,54.164-16.274,86.783,7.477c32.619,23.752,89.973-15.641,129.161-11.559
		c13.198,1.375,21.767,6.176,27.325,11.939c9.54,9.89,2.281,26.433-11.459,26.433H2234.502z"/>
	<g>
		<polygon style="fill:#D36D1A;" points="2622.848,1485.267 2855.199,1485.267 2865.938,1430.655 2634.007,1430.655 		"/>
		<polygon style="fill:#F49540;" points="2618.879,1485.267 2851.23,1485.267 2861.969,1430.655 2630.038,1430.655 		"/>
		<path style="fill:#D36D1A;" d="M2786.622,1491.953h63.494c2.81,0,5.087-2.277,5.087-5.086v-1.6h-68.581V1491.953z"/>
		
			<rect x="2576.107" y="1485.268" transform="matrix(-1 -1.224647e-16 1.224647e-16 -1 5363.2402 2977.2207)" style="fill:#FFA255;" width="211.025" height="6.686"/>
		<g>
			<path style="fill:#FFA255;" d="M2841.331,1491.953l3.979,15.642c0,0.01,0,0.01,0,0.019l11.776,46.338
				c0.158,0.607,0.699,1.027,1.316,1.027c1.195,0,2.101-1.093,1.867-2.26l-10.506-54.052l-1.307-6.714H2841.331z"/>
		</g>
		<path style="fill:#D36D1A;" d="M2845.31,1507.595c-0.383-8.003,4.454-8.928,4.454-8.928l-1.307-6.714h-7.126L2845.31,1507.595z"/>
		<g>
			<path style="fill:#FFA255;" d="M2790.929,1491.953l3.979,15.642c0,0.01,0,0.01,0,0.019l11.775,46.338
				c0.159,0.607,0.7,1.027,1.317,1.027c1.195,0,2.101-1.093,1.867-2.26l-10.506-54.052l-1.307-6.714H2790.929z"/>
		</g>
		<path style="fill:#D36D1A;" d="M2794.907,1507.595c-0.383-8.003,4.454-8.928,4.454-8.928l-1.307-6.714h-7.126L2794.907,1507.595z"
			/>
		<g>
			<path style="fill:#FFA255;" d="M2595.365,1491.953l-3.979,15.642c0,0.01,0,0.01,0,0.019l-11.775,46.338
				c-0.159,0.607-0.701,1.027-1.317,1.027c-1.195,0-2.101-1.093-1.868-2.26l10.507-54.052l1.307-6.714H2595.365z"/>
		</g>
		<path style="fill:#D36D1A;" d="M2591.387,1507.595c0.383-8.003-4.454-8.928-4.454-8.928l1.307-6.714h7.126L2591.387,1507.595z"/>
		<g>
			<path style="fill:#FFA255;" d="M2645.768,1491.953l-3.979,15.642c0,0.01,0,0.01,0,0.019l-11.775,46.338
				c-0.159,0.607-0.7,1.027-1.316,1.027c-1.196,0-2.102-1.093-1.868-2.26l10.506-54.052l1.307-6.714H2645.768z"/>
		</g>
		<path style="fill:#D36D1A;" d="M2641.789,1507.595c0.383-8.003-4.454-8.928-4.454-8.928l1.307-6.714h7.126L2641.789,1507.595z"/>
	</g>
	<g>
		<polygon style="fill:#D36D1A;" points="843.693,1477.547 1043.683,1477.547 1052.927,1430.542 853.299,1430.542 		"/>
		<polygon style="fill:#F49540;" points="840.277,1477.547 1040.267,1477.547 1049.511,1430.542 849.883,1430.542 		"/>
		<path style="fill:#D36D1A;" d="M984.658,1483.303h54.65c2.418,0,4.378-1.96,4.378-4.378v-1.376h-59.028V1483.303z"/>
		
			<rect x="803.463" y="1477.549" transform="matrix(-1 -1.224647e-16 1.224647e-16 -1 1788.5605 2960.8516)" style="fill:#FFA255;" width="181.634" height="5.754"/>
		<g>
			<path style="fill:#FFA255;" d="M1031.747,1483.303l3.424,13.463c0,0.008,0,0.008,0,0.017l10.136,39.884
				c0.137,0.522,0.603,0.884,1.133,0.884c1.029,0,1.809-0.94,1.608-1.945l-9.043-46.522l-1.125-5.779H1031.747z"/>
		</g>
		<path style="fill:#D36D1A;" d="M1035.171,1496.766c-0.33-6.889,3.834-7.684,3.834-7.684l-1.125-5.779h-6.133L1035.171,1496.766z"
			/>
		<g>
			<path style="fill:#FFA255;" d="M988.364,1483.303l3.424,13.463c0,0.008,0,0.008,0,0.017l10.136,39.884
				c0.137,0.522,0.603,0.884,1.133,0.884c1.029,0,1.809-0.94,1.607-1.945l-9.042-46.522l-1.125-5.779H988.364z"/>
		</g>
		<path style="fill:#D36D1A;" d="M991.789,1496.766c-0.33-6.889,3.834-7.684,3.834-7.684l-1.125-5.779h-6.133L991.789,1496.766z"/>
		<g>
			<path style="fill:#FFA255;" d="M820.039,1483.303l-3.424,13.463c0,0.008,0,0.008,0,0.017l-10.136,39.884
				c-0.136,0.522-0.602,0.884-1.133,0.884c-1.029,0-1.809-0.94-1.607-1.945l9.042-46.522l1.125-5.779H820.039z"/>
		</g>
		<path style="fill:#D36D1A;" d="M816.615,1496.766c0.33-6.889-3.834-7.684-3.834-7.684l1.125-5.779h6.133L816.615,1496.766z"/>
		<g>
			<path style="fill:#FFA255;" d="M863.421,1483.303l-3.424,13.463c0,0.008,0,0.008,0,0.017l-10.136,39.884
				c-0.137,0.522-0.603,0.884-1.133,0.884c-1.029,0-1.809-0.94-1.608-1.945l9.043-46.522l1.125-5.779H863.421z"/>
		</g>
		<path style="fill:#D36D1A;" d="M859.997,1496.766c0.33-6.889-3.834-7.684-3.834-7.684l1.125-5.779h6.133L859.997,1496.766z"/>
	</g>
	<g>
		<path style="fill:#233862;" d="M688.388,1265.854c2.772-4.209,13.777-1.854,24.58,5.262c10.803,7.114,17.314,16.294,14.542,20.503
			c-2.772,4.209-13.777,1.854-24.58-5.262C692.127,1279.242,685.616,1270.063,688.388,1265.854z"/>
		<g>
			<path style="fill:#BC3F3F;" d="M744.827,1422.236l-2.132,0.128c0.019-0.048-0.83-37.249-4.093-52.3
				c-6.08-28.043-21.97-49.994-22.145-50.183l3.818-1.224c0.188,0.203,3.203,4.87,7.47,13.483
				c3.932,7.936,10.256,21.157,13.048,36.554C743.549,1383.9,744.906,1422.035,744.827,1422.236z"/>
		</g>
		<path style="fill:#A53D38;" d="M706.28,1265.523c0,0,13.941-2.975,20.633,8.364c6.692,11.339,7.063,31.042,11.525,37.486
			c4.461,6.444,12.33,33.642,3.965,39.728c-8.365,6.086-59.893-0.223-62.786-2.998c-2.893-2.775,0.173-31.338,5.208-39.61
			C689.861,1300.221,677.592,1261.31,706.28,1265.523z"/>
		<path style="fill:#FFB27D;" d="M685.512,1389.637c-15.774-4.015-33.115-28.486-33.115-28.486l4.441-3.854
			c4.599,5.422,23.719,14.76,23.719,14.76c-0.102-4.962,0.027-9.487,0.341-13.606c2.122-27.993,12.675-37.32,15.555-39.366
			c0.465-0.333,0.731-0.472,0.731-0.472s0.011,0.203,0.027,0.589c0.042,0.832,0.119,2.508,0.197,4.808
			C697.994,1341.143,698.693,1392.994,685.512,1389.637z"/>
		<path style="fill:#FFB27D;" d="M656.839,1357.297c-0.066-0.661-0.511-10.278-2.421-12.109c-1.911-1.831-5.683-4.325-6.767-4.123
			c-1.084,0.202-4.766,6.326-3.028,10.544c1.738,4.218,7.774,9.542,7.774,9.542L656.839,1357.297z"/>
		<path style="fill:#FFB27D;" d="M719.861,1552.392c-0.961,3.82-2.018,7.458-3.095,10.845c-0.231,0.726-0.458,1.439-0.69,2.138
			c-0.116,0.347-0.231,0.689-0.343,1.029c-0.228,0.67-0.451,1.328-0.674,1.97c-0.291,0.838-0.582,1.655-0.869,2.445
			c-0.211,0.586-0.423,1.16-0.63,1.723c-3.199,8.579-5.879,14.016-5.879,14.016l-6.374-0.438c0,0,2.393-11.384,2.872-27.688
			c0.016-0.582,0.032-1.168,0.044-1.763c0.024-1.265,0.039-2.553,0.039-3.869c0-0.538-0.004-1.085-0.008-1.635
			c-0.127-14.044-1.867-30.64-7.415-46.486c-4.511-12.883-7.782-24.937-10.147-35.829c-7.634-35.162-5.839-58.264-5.839-58.264
			l35.857,4.195l1.671,0.195c0.151,16.469,0.574,38.828,0.945,56.311c0.063,3.035,0.124,5.923,0.183,8.607
			c0.247,11.223,0.435,18.896,0.435,18.896C726.841,1513.635,724.336,1534.591,719.861,1552.392z"/>
		<path style="fill:#FFB27D;" d="M736.97,1406.561c-6.776-15.197-10.018-19.495-10.131-24.276c-0.09-3.781,1.774-7.861,5.397-17.865
			c0.852-2.357,1.441-4.782,1.803-7.231c2.865-19.287-8.288-40.136-15.22-41.557c-1.929-0.509-5.198-7.476-5.158-18.699
			l-0.868,0.171l-14.596,2.89c0,0,0.332,4.594,0.342,8.921c0.01,3.606-0.185,7.275-1.002,7.706
			c-1.051,0.095-12.509,2.143-14.592,5.431c-2.048,3.232,0.234,3.53-0.564,15.297c-1.065,15.717,10.015,34.348,0.188,65.761
			C672.536,1435.189,740.714,1414.958,736.97,1406.561z"/>
		<path style="fill:#EF9E67;" d="M698.197,1299.992c0,0,0.332,4.594,0.342,8.921c8.167-0.23,12.485-7.681,14.254-11.811
			L698.197,1299.992z"/>
		<path style="fill:#FFB27D;" d="M695.469,1304.09c0,0,19.325,0.318,19.338-11.719c0.013-12.037,2.516-20.103-9.821-20.815
			s-14.74,3.878-15.722,7.895C688.283,1283.467,690.443,1303.696,695.469,1304.09z"/>
		<path style="fill:#A53D38;" d="M696.185,1271.261c0,0,5.291,14.122,13.411,16.21c8.12,2.088,11.642-0.087,11.642-0.087
			s-6.229-4.948-7.521-13.585C713.717,1273.799,700.176,1264.539,696.185,1271.261z"/>
		<path style="fill:#A53D38;" d="M697.496,1272.407c0,0-3.952,3.153-4.915,6.218c-0.963,3.065-1.396,9.376-3.236,9.161
			c0,0-3.986-9.599,0.494-15.028C694.589,1267,697.496,1272.407,697.496,1272.407z"/>
		<path style="fill:#FFB27D;" d="M762.102,1422.703l-5.801,1.739c0,0-19.137-31.753-20.878-40.015
			c-0.568-2.689-1.959-8.073-3.583-14.104c-3.361-12.489-7.697-27.771-7.697-27.771l-1.428-6.187l-4.871-21.097
			c0,0,9.328,0.953,14.784,3.234c1.806,0.754,3.185,1.654,3.666,2.71c4.008,8.813,8.01,31.056,10.822,46.922
			c1.567,8.844,2.763,15.707,3.387,17.162C752.244,1389.355,757.56,1411.685,762.102,1422.703z"/>
		<path style="fill:#A53D38;" d="M696.762,1272.885c0,0,3.77,14.788,14.016,19.524c0,0-10.246-9.086-11.116-18.849
			C698.792,1263.799,696.762,1272.885,696.762,1272.885z"/>
		<path style="fill:#FFB27D;" d="M740.43,1549.304c-2.062,22.001-11.14,36.232-11.14,36.232l-3.099,2.819
			c0,0-2.824-16.109-4.862-34.553c-1.942-17.529-4.606-36.08-7.618-41.743c-4.503-8.46-7.822-25.762-10.211-44.042
			c-3.948-30.248-5.349-63.182-5.349-63.182l36.355-1.803c3.657,6.146,5.249,16.229,5.628,27.692
			c0.399,12.054-0.551,25.634-1.867,37.771c-1.839,16.991-4.399,31.154-4.994,34.337c0,0.004,0,0.008-0.004,0.016
			c-0.08,0.419,0.044,0.838,0.239,1.217C740.745,1518.385,741.79,1534.766,740.43,1549.304z"/>
		<path style="fill:#FFB93E;" d="M671.505,1375.617c0.565,7.395,3.342,17.343,13.997,18.896c3.77,0.551,6.465-2.852,8.379-8.513
			c2.502-7.398,3.662-18.648,4.123-29.961c0.442-10.714,0.26-21.491,0-29.102c-4.372-0.494-12.394-4.197-14.855-5.119
			c-0.071,0.074-0.142,0.152-0.205,0.23c-0.052,0.06-0.101,0.123-0.145,0.186c-0.085,0.119-0.156,0.234-0.219,0.354
			c-1.063,2.019-1.22,13.347-1.748,24.038c-0.457,9.357-1.201,18.228-3.078,19.968c-0.852,0.78-6.093,0.807-6.093,0.807
			S671.152,1371.015,671.505,1375.617z"/>
		<path style="fill:#FFA412;" d="M698.004,1356.041c-0.817,19.97-3.805,39.745-12.5,38.473c-10.657-1.556-13.434-11.503-14-18.897
			c2.616-0.132,7.223-0.77,9.054-3.562c2.621-3.996,10.797-29.723,10.797-29.723S694.57,1348.107,698.004,1356.041z"/>
		<path style="fill:#2B478B;" d="M686.692,1383.166c0,0,21.386,5.367,40.146-0.882c0,0,10.301,21.87,13.134,31.243
			s24.24,129.332,24.24,129.332s-47.111,13.625-78.421,1.858c0,0-9.227-128.247-5.123-141.685
			C684.774,1389.596,686.692,1383.166,686.692,1383.166z"/>
		<path style="fill:#FFB93E;" d="M680.833,1346.544c1.565,15.46,5.859,36.432,5.859,36.432c2.368,1.253,4.781,2.172,7.19,2.824
			c16.618,4.515,32.953-3.703,32.953-3.703s0.026-0.478,0.067-1.056c0.034-0.479,0.082-1.016,0.138-1.412
			c0.122-0.875,4.067-10.26,4.067-10.26s0.149,0.73,0.409,1.976c1.442,6.86,6.391,29.407,9.424,31.438
			c1.758,1.171,7.383,1.189,12.662-0.249c5.495-1.493,10.61-4.569,10.61-9.569c0-6.401-11.64-35.35-20.027-55.183
			c-0.004-0.022-0.008-0.03-0.008-0.03c-4.465-10.574-7.059-17.931-10.474-18.753c0,0-22.974,9.351-35.699,7.916
			c-4.372-0.493-12.394-4.185-14.855-5.104c-0.071,0.074-0.142,0.152-0.205,0.23c-0.052,0.059-0.101,0.122-0.145,0.186
			c-0.05,0.068-0.093,0.136-0.134,0.203c-1.865,2.748-1.57,7.305-1.665,9.044C680.815,1334.871,680.134,1339.624,680.833,1346.544z"
			/>
		<path style="fill:#FFA412;" d="M731.108,1369.521c0,0-3.944,9.413-4.068,10.291c-0.056,0.395-0.104,0.937-0.139,1.416
			c-1.907,1.555-4.212,2.735-6.561,3.449c-6.673,2.022-9.573-10.769-9.174-17.15c0.399-6.382,9.836-24.597,12.978-24.976
			C727.284,1342.177,731.108,1369.521,731.108,1369.521z"/>
		<path style="fill:#E58638;" d="M731.516,1371.5c-0.259-1.248-0.407-1.979-0.407-1.979
			C731.316,1370.195,731.452,1370.854,731.516,1371.5z"/>
		<g>
			<path style="fill:#163560;" d="M703.966,1387.246c-12.181,0-17.014-3.419-17.386-3.704l-0.788-5.737
				c0.117,0.087,16.461,9.901,41.755,0.502l-0.536,4.346C717.284,1386.268,710.292,1387.246,703.966,1387.246z"/>
		</g>
		<path style="fill:#FFA412;" d="M764.213,1393.186c0,5.018-5.117,8.101-10.61,9.601c7.57-9.015-8.994-63.558-9.416-64.949
			C752.571,1357.731,764.213,1386.768,764.213,1393.186z"/>
		<g>
			<path style="fill:#233862;" d="M711.349,1591.902h-4.068c-1.363-0.215-2.369-0.609-3.767-0.792
				c-2.123-0.278-3.1,0.592-3.294,0.792c-0.026,0.025-0.038,0.04-0.038,0.04h-17.283c-0.435-0.62-0.017-2.059,0.392-3.117
				c0.275-0.719,0.876-1.265,1.618-1.479c1.833-0.531,5.446-1.004,8.754-3.999c1.861-1.682,8.989-6.186,8.989-6.186l0.038-0.008
				c0.156,0.003,0.901,0.231,4.144,2.969c1.676,1.412,4.532-1.995,4.532-1.995s0.536,0.444,0.936,1.271
				c0.322,0.652,0.557,1.549,0.371,2.653c-0.258,1.557,0.574,4.451,1.238,6.408c0.403,1.186,0.742,2.027,0.742,2.027
				S714.849,1591.464,711.349,1591.902z"/>
			<path style="fill:#466AA5;" d="M712.303,1579.398c-0.971,0.685-3.021,2.033-4.381,2.209c-1.836,0.241-5.269-4.445-5.269-4.445
				l0.038-0.008c0.156,0.003,0.901,0.231,4.144,2.969c1.676,1.412,4.532-1.995,4.532-1.995S711.902,1578.572,712.303,1579.398z"/>
			<path style="fill:#466AA5;" d="M711.349,1591.902h-4.068c-1.363-0.215-2.369-0.609-3.767-0.792
				c-2.123-0.278-3.1,0.592-3.294,0.792c-0.026,0.025-0.038,0.04-0.038,0.04h-17.283c-0.435-0.62-0.017-2.059,0.392-3.117
				c0.525-0.467,0.673,2.027,0.963,2.425c0.29,0.396,14.098,0.145,14.896-0.436c0.798-0.58,3.19-1.595,6.524-0.797
				c2.903,0.692,7.18-1.085,8.238-1.558c0.403,1.186,0.742,2.027,0.742,2.027S714.849,1591.464,711.349,1591.902z"/>
		</g>
		<g>
			<path style="fill:#233862;" d="M733.059,1591.902h-4.068c-1.363-0.215-2.369-0.609-3.767-0.792
				c-2.122-0.278-3.1,0.592-3.294,0.792c-0.026,0.025-0.038,0.04-0.038,0.04H704.61c-0.435-0.62-0.018-2.059,0.392-3.117
				c0.275-0.719,0.876-1.265,1.618-1.479c1.833-0.531,5.446-1.004,8.754-3.999c1.862-1.682,8.989-6.186,8.989-6.186l0.038-0.008
				c0.157,0.003,0.902,0.231,4.143,2.969c1.676,1.412,4.533-1.995,4.533-1.995s0.536,0.444,0.937,1.271
				c0.322,0.652,0.557,1.549,0.371,2.653c-0.258,1.557,0.574,4.451,1.238,6.408c0.403,1.186,0.742,2.027,0.742,2.027
				S736.559,1591.464,733.059,1591.902z"/>
			<path style="fill:#466AA5;" d="M734.013,1579.398c-0.972,0.685-3.021,2.033-4.381,2.209c-1.836,0.241-5.269-4.445-5.269-4.445
				l0.038-0.008c0.157,0.003,0.902,0.231,4.143,2.969c1.676,1.412,4.533-1.995,4.533-1.995S733.613,1578.572,734.013,1579.398z"/>
			<path style="fill:#466AA5;" d="M733.059,1591.902h-4.068c-1.363-0.215-2.369-0.609-3.767-0.792
				c-2.122-0.278-3.1,0.592-3.294,0.792c-0.026,0.025-0.038,0.04-0.038,0.04H704.61c-0.435-0.62-0.018-2.059,0.392-3.117
				c0.525-0.467,0.672,2.027,0.962,2.425c0.29,0.396,14.099,0.145,14.896-0.436c0.797-0.58,3.19-1.595,6.524-0.797
				c2.903,0.692,7.18-1.085,8.238-1.558c0.403,1.186,0.742,2.027,0.742,2.027S736.559,1591.464,733.059,1591.902z"/>
		</g>
		<path style="fill:#FFB27D;" d="M761.691,1421.736c0,0,1.764,4.156,3.601,5.316c1.836,1.16,3.581,3.943,3.963,6.187
			c0.7,4.115-2.455,6.669-4.775,6.669s-4.537-3.163-5.901-10.717c-0.075-0.416-2.276-4.748-2.276-4.748L761.691,1421.736z"/>
		<g>
			<polygon style="fill:#EE9849;" points="648.065,1335.851 648.337,1338.639 649.192,1347.42 649.738,1353.045 660.951,1353.045 
				661.639,1347.42 662.717,1338.639 663.059,1335.851 			"/>
			<polygon style="fill:#D17A33;" points="647.269,1335.851 663.942,1335.851 663.616,1334.178 647.677,1334.178 			"/>
			<polygon style="fill:#D17A33;" points="648.337,1338.639 649.192,1347.42 661.639,1347.42 662.717,1338.639 			"/>
		</g>
		<path style="fill:#FFB27D;" d="M646.862,1341.8c0,0,2.832-3.162,5.665-0.746c2.832,2.417-0.188,7.576-2.645,8.987
			c-2.456,1.41-3.245,2.146-3.245,2.146L646.862,1341.8z"/>
		<g>
			<path style="fill:#BC3F3F;" d="M711.13,1422.407l2.13-0.159c-0.025-0.046-4.169-37.271-2.952-52.727
				c2.268-28.795,15.073-52.837,15.22-53.048l-3.947-0.706c-0.159,0.228-2.521,5.291-5.596,14.459
				c-2.833,8.447-7.329,22.489-8.032,38.226C707.259,1383.992,711.024,1422.218,711.13,1422.407z"/>
		</g>
		<g>
			<path style="fill:#D2E4FF;" d="M736.95,1414.22c0,0-2.07-5.095-5.361-6.366l-16.805,3.167c0,0,4.148,3.946,4.539,6.521
				L736.95,1414.22z"/>
			<path style="fill:#912F2F;" d="M715.851,1442.976l28.723-5.413c1.35-0.255,2.238-1.555,1.983-2.904l-3.588-19.042
				c-0.254-1.35-1.555-2.237-2.905-1.983l-28.723,5.413c-1.35,0.254-2.237,1.555-1.983,2.904l3.588,19.042
				C713.201,1442.342,714.501,1443.229,715.851,1442.976z"/>
			<g>
				
					<rect x="726.266" y="1403.706" transform="matrix(-1 0.0087 -0.0087 -1 1478.5911 2818.5552)" style="fill:#E58638;" width="13.736" height="17.607"/>
				
					<rect x="727.053" y="1403.699" transform="matrix(-1 0.0087 -0.0087 -1 1480.1644 2818.5342)" style="fill:#EE9849;" width="13.735" height="17.608"/>
			</g>
			<g>
				
					<rect x="722.557" y="1408.293" transform="matrix(-0.7941 0.6078 -0.6078 -0.7941 2169.9727 2099.0405)" style="fill:#578E9B;" width="13.736" height="17.608"/>
				
					<rect x="723.776" y="1407.36" transform="matrix(-0.7941 0.6078 -0.6078 -0.7941 2171.593 2096.6252)" style="fill:#74ACBE;" width="13.736" height="17.607"/>
			</g>
			<path style="fill:#BC3F3F;" d="M722.868,1441.652l27.502-5.183c1.687-0.317,2.796-1.943,2.479-3.63l-3.358-17.82
				c-0.318-1.688-1.943-2.797-3.63-2.479l-27.501,5.183c-1.687,0.317-2.797,1.943-2.479,3.63l3.358,17.82
				C719.556,1440.861,721.181,1441.971,722.868,1441.652z"/>
		</g>
		<path style="fill:#233862;" d="M729.369,1281.17c0,0,8.792-17.5-3.494-24.418c-12.286-6.918-21.278-4.201-28.038,4.259
			L729.369,1281.17z"/>
		<path style="fill:#2B478B;" d="M687.882,1276.074c0.583-1.963,1.29-3.443,1.915-4.491c-0.666-1.617-0.732-3.015-0.089-4.049
			c0.825-1.323,2.703-1.854,5.25-1.691c4.375,0.282,10.736,2.628,17.131,6.617c8.324,5.194,12.872,11.923,14.669,15.637
			c1.273,2.627,5.766,5.785,7.332,9.157c1.576-0.42,2.625-1.146,3.327-2.265c2.29-3.673-1.16-10.29-8.231-17.205
			c-3.792-3.707-8.625-7.495-14.175-10.956c-4.461-2.781-8.907-5.06-13.083-6.767c-10.677-4.372-19.525-5.026-22.053-0.974
			C677.606,1262.72,680.959,1269.24,687.882,1276.074z"/>
	</g>
	<g>
		<path style="fill:#163560;" d="M527.098,1328.206c-1.248-2.406,27.225-11.073,27.676,12.68c0,0,53.337-1.312,27.87-31.041
			c-8.817-10.292-7.91-18.802-7.645-26.723c0.268-7.923-5.492-30.946-25.234-28.628c0,0-5.17-2.104-11.622,1.243
			C523.469,1263.351,490.599,1336.966,527.098,1328.206z"/>
		<path style="fill:#FFB27D;" d="M614.299,1354.761c0,0,3.472-5.285,6.27-5.389c2.798-0.104,7.98-1.555,7.565-0.519
			c-0.415,1.037-3.627,1.141-3.938,1.762c-0.311,0.622,4.767,1.555,6.218,1.658c1.451,0.104,4.871,0,4.767,0.726
			c-0.104,0.726-6.164,3.731-10.44,3.316c-4.276-0.414-9.562,1.243-9.562,1.243L614.299,1354.761z"/>
		<path style="fill:#F9DDBF;" d="M564.087,1356.471c0,0,1.887,3.737,5.31,8.031c4.126,5.167,10.487,11.137,18.474,12.314
			c3.815,0.563,7.546-0.258,10.975-1.781c0.009-0.003,0.012-0.003,0.012-0.003c9.701-4.306,16.994-14.209,16.994-14.209
			c1.71-4.663-1.088-7.825-1.088-7.825s-19.587,4.405-21.453,3.473c-1.865-0.933-12.747-32.281-15.337-36.221
			c-2.593-3.938-11.423-5.984-11.423-5.984L564.087,1356.471z"/>
		<path style="fill:#F2CCAA;" d="M569.397,1364.502c4.126,5.167,10.487,11.137,18.474,12.314c3.815,0.563,7.546-0.258,10.975-1.781
			c-0.379,0.05-10.067,1.247-13.929-5.662c-3.939-7.048-8.198-18.24-14.05-14.51
			C568.344,1356.475,568.456,1360.476,569.397,1364.502z"/>
		<path style="fill:#233862;" d="M491.012,1567.902c0,0-5.977,5.455-4.81,9.33c1.166,3.876,6.559,6.459,7.288,11.196
			c0.729,4.736,3.645,7.32,6.269,7.32c2.623,0,12.509,0,12.509,0s1.932-3.333-2.733-4.338c-4.665-1.005-6.424-6.571-6.132-11.738
			s-0.438-12.058-0.438-12.058l-9.912-2.296L491.012,1567.902z"/>
		<path style="fill:#233862;" d="M541.599,1570.219c0,0-2.15,23.106,0.474,24.398l33.581-0.069c0,0,0-3.875-5.393-4.736
			c-5.394-0.861-14.869-4.02-16.473-11.053C552.183,1571.726,541.599,1570.219,541.599,1570.219z"/>
		<path style="fill:#FFB27D;" d="M517.669,1404.446c6.91-15.497,11.139-19.945,10.331-24.756c-0.601-3.58,1.83-66.748,1.83-66.748
			c0.82-0.254,2.463-0.481,3.362-0.681c2.834-0.63,5.18-2.621,6.157-5.355c1.176-3.293,2.111-8.157,2.089-14.252l0.885,0.174
			l14.884,2.947c0,0-0.339,4.685-0.349,9.097c0,0.037,0,0.073,0,0.11c-0.018,3.832,2.496,7.215,6.178,8.277
			c1.88,0.543,3.516,1.007,3.516,1.007s5.465,15.603,6.509,31.633c1.044,16.029-9.938,22.993,0.083,55.024
			C583.375,1433.64,513.851,1413.009,517.669,1404.446z"/>
		<path style="fill:#E8945B;" d="M557.207,1295.775c0,0-0.339,4.685-0.349,9.097c-8.329-0.234-12.731-7.832-14.535-12.044
			L557.207,1295.775z"/>
		<path style="fill:#FFB27D;" d="M559.988,1299.954c0,0-19.706,0.325-19.719-11.95c-0.014-12.274-2.566-20.499,10.015-21.226
			c12.581-0.727,15.03,3.954,16.031,8.051C567.317,1278.925,565.114,1299.553,559.988,1299.954z"/>
		<path style="fill:#163560;" d="M559.259,1266.478c0,0-5.395,14.4-13.675,16.53c-8.28,2.129-11.872-0.09-11.872-0.09
			s6.351-5.045,7.669-13.853C541.381,1269.065,555.189,1259.623,559.259,1266.478z"/>
		<path style="fill:#163560;" d="M557.922,1267.646c0,0,4.001,1.496,5.647,4.414c1.61,2.854,2.982,6.632,2.664,11.269
			c0,0,4.065-9.788-0.503-15.325C560.886,1262.133,557.922,1267.646,557.922,1267.646z"/>
		<path style="fill:#EBF3FA;" d="M555.701,1292.34c0,0,1.36,1.789,4.08,1.66c2.191-0.104,3.037-2.005,3.037-2.005
			S558.792,1291.027,555.701,1292.34z"/>
		<path style="fill:#F9DDBF;" d="M515.767,1340.886c0,0-0.5,7.055,0,15.521c0.333,5.612,6.009,13.129,6.814,14.988
			c2.021,4.664,4.3,5.422,4.3,5.422l17.631,4.322l6.2,1.517l19.55-5.839c0,0,8.904-24.854,5.329-38.845
			c-3.575-13.99-9.038-23.706-9.038-23.706s-15.952,15.62-36.724-1.324L515.767,1340.886z"/>
		<path style="fill:#F2CCAA;" d="M520.928,1358.697c0.333,5.611,0.849,10.838,1.654,12.697c2.021,4.664,4.3,5.422,4.3,5.422
			l17.631,4.322l7.658-2.252c0,0-25.563-3.873-22.73-25.867L520.928,1358.697z"/>
		<path style="fill:#ED7D2B;" d="M569.019,1380.589c0,0,9.682,30.135,10.303,40.395c0.622,10.261-18.506,145.751-19.276,150.479
			c-0.726,4.456-6.259,7.297-6.259,7.297s-2.545,1.501-6.177,0.476c-5.04-1.423-6.633-3.127-6.633-3.127
			s-7.535-96.631-2.872-131.149c4.664-34.519,4.718-64.369,4.718-64.369H569.019z"/>
		<path style="fill:#F99746;" d="M528,1379.69c0,0-14.768,19.815-16.145,33.21c-1.377,13.395-2.16,60.445-5.093,73.503
			c-2.933,13.058-13.709,38.188-13.709,78.916c0,0,1.12,2.334,4.579,3.578c1.106,0.397,2.588,0.783,4.027,1.112
			c2.852,0.654,5.779-0.739,7.081-3.36c7.286-14.67,30.494-61.982,31.684-71.803c0.842-6.95,8.17-52.95,24.154-79.941
			c3.838-6.48-2.355-32.25-2.355-32.25L528,1379.69z"/>
		<path style="fill:#FFFFFF;" d="M556.139,1292.668c0,0,0.34,1.446,3.939,1.223c0,0,3.021-0.187,2.929-1.776
			C563.007,1292.114,560.077,1290.983,556.139,1292.668z"/>
		<path style="fill:#233862;" d="M570.565,1375.938c0,0-3.887,3.074-11.607,3.229c-9.223,0.186-32.075-2.351-32.075-2.351
			s-1.015,2.836-0.974,5.832c0,0,27.911,7.04,44.082,1.028C569.99,1383.677,572.076,1379.752,570.565,1375.938z"/>
		<g>
			<path style="fill:#FFFFFF;" d="M556.962,1382.352c0-2.626,1.888-4.763,4.208-4.763c2.32,0,4.209,2.137,4.209,4.763
				c0,2.627-1.888,4.763-4.209,4.763C558.85,1387.114,556.962,1384.979,556.962,1382.352z M558.356,1382.352
				c0,1.857,1.262,3.368,2.813,3.368c1.552,0,2.814-1.511,2.814-3.368s-1.262-3.368-2.814-3.368
				C559.619,1378.983,558.356,1380.494,558.356,1382.352z"/>
		</g>
		
			<rect x="509.217" y="1348.316" transform="matrix(-0.7542 -0.6567 0.6567 -0.7542 24.0404 2757.5339)" style="fill:#B5453C;" width="37.917" height="51.902"/>
		<path style="fill:#FFB27D;" d="M533.332,1381.479c0,0,10.477,1.226,10.444,3.712c-0.033,2.487-2.611,7.597-3.905,7.824
			c-1.294,0.227-8.527-6.91-8.527-6.91L533.332,1381.479z"/>
		<path style="fill:#F9DDBF;" d="M529.829,1312.941c0,0-13.988,0.98-19.35,14.016c-5.362,13.034-15.535,34.919-15.535,38.602
			c0,3.682,5.683,15.03,36.203,21.556c0,0,3.157-3.32,2.966-5.946c0,0-19.052-16.364-19.001-18.276
			c0.097-3.618,3.123-8.394,19.85-25.126C539.509,1333.217,529.829,1312.941,529.829,1312.941z"/>
	</g>
	<path style="fill:#82B378;" d="M1881.576,1753.749h-45.446l-127.153-0.147c-3.295-9.834-4.875-22.594-2.389-38.809
		c7.691-50.173,40.817-78.352,84.279-77.728c43.463,0.612,68.445,26.734,80.789,50.835
		C1880.327,1704.813,1883.744,1733.199,1881.576,1753.749z"/>
	<path style="fill:#82B378;" d="M1047.959,1674.159c0,0-24.336-14.773-18.346-58.288c5.99-43.516,31.776-67.959,65.622-67.422
		c33.845,0.537,53.291,23.195,62.908,44.1s10.938,62.057,3.17,74.896C1153.545,1680.282,1076.809,1683.829,1047.959,1674.159z"/>
	<path style="fill:#82B378;" d="M1173.134,1538.075c0,0-15.996-9.711-12.059-38.313c3.938-28.603,20.887-44.67,43.134-44.316
		s35.028,15.246,41.35,28.987c6.321,13.74,7.19,40.79,2.084,49.229C1242.537,1542.1,1192.097,1544.432,1173.134,1538.075z"/>
	<g>
		<g>
			<path style="fill:#82B378;" d="M2910.892,1641.98c0,0-10.327-59.029-17.971-46.901
				C2885.278,1607.207,2910.892,1641.98,2910.892,1641.98z"/>
			<path style="fill:#82B378;" d="M2902.904,1640.69c0,0-18.478-32.108-22.377-28.286
				C2876.627,1616.226,2902.904,1640.69,2902.904,1640.69z"/>
			<path style="fill:#82B378;" d="M2915.378,1642.327c0.066-0.549-2.11-47.064,9.474-42.097
				C2936.437,1605.197,2915.378,1642.327,2915.378,1642.327z"/>
		</g>
		<path style="fill:#82B378;" d="M2886.395,1640.69c0,0,18.369-9.643,49.802-1.887c0,0,7.347,3.878,0,6.327
			C2928.848,1647.58,2874.633,1648.575,2886.395,1640.69z"/>
	</g>
	<g>
		<g>
			<path style="fill:#82B378;" d="M1470.398,1723.613c0,0-10.328-59.029-17.971-46.902
				C1444.784,1688.839,1470.398,1723.613,1470.398,1723.613z"/>
			<path style="fill:#82B378;" d="M1462.411,1722.322c0,0-18.478-32.107-22.378-28.286S1462.411,1722.322,1462.411,1722.322z"/>
			<path style="fill:#82B378;" d="M1474.884,1723.96c0.066-0.55-2.11-47.065,9.474-42.098
				C1495.942,1686.829,1474.884,1723.96,1474.884,1723.96z"/>
		</g>
		<path style="fill:#82B378;" d="M1445.9,1722.322c0,0,18.37-9.643,49.802-1.886c0,0,7.348,3.878,0,6.327
			C1488.354,1729.213,1434.139,1730.207,1445.9,1722.322z"/>
	</g>
	<g>
		<g>
			<path style="fill:#82B378;" d="M881.624,1727.348c0,0-10.328-59.029-17.971-46.901
				C856.011,1692.574,881.624,1727.348,881.624,1727.348z"/>
			<path style="fill:#82B378;" d="M873.637,1726.059c0,0-18.478-32.109-22.378-28.287
				C847.36,1701.593,873.637,1726.059,873.637,1726.059z"/>
			<path style="fill:#82B378;" d="M886.11,1727.695c0.067-0.55-2.11-47.065,9.474-42.098
				C907.169,1690.564,886.11,1727.695,886.11,1727.695z"/>
		</g>
		<path style="fill:#82B378;" d="M857.126,1726.059c0,0,18.37-9.644,49.802-1.887c0,0,7.348,3.878,0,6.327
			C899.581,1732.948,845.366,1733.942,857.126,1726.059z"/>
	</g>
	<polygon style="fill:#DDAF8A;" points="2521.309,1733.875 2058.741,1733.703 2152.02,1656.84 2614.586,1657.013 	"/>
	<g>
		<path style="fill:#F4A269;" d="M2723.996,1412.244c0,0-3.885,5.749-6.101,17.833c-1.94,10.583-3.642,14.49-6.444,16.661
			c-2.802,2.17-18.415,8.578-18.415,8.578l1.167,2.735c0,0,22.885-3.116,25.455-6.941s12.37-26.422,11.609-31.626
			S2723.996,1412.244,2723.996,1412.244z"/>
		<g>
			<path style="fill:#FFB27D;" d="M2708.202,1531.869c1.444,1.714-0.796,3.935-3.647,6.138c-2.851,2.203-1.537,2.187-5.074,5.737
				s-5.93,3.572-6.604,3.229c-0.6-0.304,0.755-2.372,2.163-4.626c0.178-0.283,0.354-0.569,0.529-0.855
				c1.566-2.563,1.424-5.47,1.877-8.571c0.429-2.938-1.95-9.731-1.95-9.731l4.683-5.003c0,0,2.021,6.197,3.008,8.758
				c0.58,1.506,2.047,2.62,3.222,3.427C2707.045,1530.812,2707.694,1531.265,2708.202,1531.869z"/>
			<path style="fill:#C65447;" d="M2704.555,1538.007c-2.851,2.203-1.537,2.187-5.074,5.737s-5.93,3.572-6.604,3.229
				c-0.6-0.304,0.755-2.372,2.163-4.626l0.056,0.012c0,0,3.518-1.015,6.182-4.194c2.171-2.591,3.646-5.993,5.131-7.794
				c0.637,0.44,1.286,0.894,1.794,1.498C2709.646,1533.583,2707.406,1535.804,2704.555,1538.007z"/>
		</g>
		<path style="fill:#2C3A64;" d="M2734.694,1459.012c0,0-44.532-3.352-52.917,1.939c-8.384,5.292,15.12,72.188,15.12,72.188
			s2.486-0.688,4.21-1.938c1.582-1.148,3.342-3.266,3.342-3.266s2.05-22.401-5.914-49.649c-0.87-2.979,36.165,6.49,42.01-3.806
			c5.844-10.296,1.013-20.488,1.013-20.488L2734.694,1459.012z"/>
		<g>
			<path style="fill:#FFB27D;" d="M2684.999,1545.636c0.206,2.231-2.901,2.774-6.5,2.954c-3.599,0.179-2.511,0.916-7.442,1.809
				c-4.932,0.894-6.908-0.456-7.266-1.122c-0.317-0.591,1.976-1.516,4.419-2.561c0.308-0.131,0.615-0.266,0.923-0.4
				c2.75-1.209,4.293-3.675,6.438-5.962c2.031-2.166,3.959-9.101,3.959-9.101l6.702-1.432c0,0-1.882,6.242-2.535,8.906
				c-0.384,1.567,0.183,3.319,0.687,4.653C2684.653,1544.106,2684.928,1544.85,2684.999,1545.636z"/>
			<path style="fill:#C65447;" d="M2678.499,1548.59c-3.599,0.179-2.511,0.916-7.442,1.809c-4.932,0.894-6.908-0.456-7.266-1.122
				c-0.317-0.591,1.976-1.516,4.419-2.561l0.038,0.041c0,0,3.468,1.178,7.47,0.089c3.263-0.885,6.417-2.835,8.665-3.465
				c0.271,0.726,0.545,1.469,0.616,2.255C2685.205,1547.867,2682.098,1548.41,2678.499,1548.59z"/>
		</g>
		<path style="fill:#1C468A;" d="M2743.417,1461.771c0,0-39.561,1.873-47.732,7.486c-8.171,5.613-19.208,67.722-19.208,67.722
			s0.854,0.632,2.715,0.761c1.729,0.119,5.483-1.041,5.483-1.041s18.235-28.308,19.325-35.303c1.09-6.994,0.518-13.176,3.607-13.463
			c3.091-0.286,41.887,3.069,47.326-7.446C2760.373,1469.973,2743.417,1461.771,2743.417,1461.771z"/>
		<path style="fill:#163560;" d="M2732.551,1410.505c-1-1.184-2.348-3.396-3.803-7.582c0.164,0.41,2.285,5.617,5.143,8.14
			c9.958,3.409,19.876,24.633,19.96,24.549c0,0,19.926-16.374,5.978-30.523c-5.438-5.517-7.005-11.883-7.861-16.332
			c-0.854-4.449-7.703-22.791-19.245-14.571c0,0-2.289-0.387-3.175-0.014c0,0,0.789-0.049,1.272,0.248
			c-1.507,0.293-3.603,0.947-5.115,2.408C2721.693,1380.699,2723.631,1405.713,2732.551,1410.505z"/>
		<path style="fill:#FFB27D;" d="M2745.079,1405.623c0,0-3.685-0.35-7.368,0c-2.503,0.238-4.982,1.015-6.394,1.604
			c-3.486,1.458-3.12,7.631,4.195,6.487C2742.828,1412.572,2745.592,1407.454,2745.079,1405.623z"/>
		<path style="fill:#FFB27D;" d="M2731.627,1410.125c-0.043,0.022-1.044,5.311,3.746,5.099c3.145-0.139,9.928-3.944,9.328-6.637
			c-0.284-1.279-2.661-4.601-3.139-12.18l-0.572,0.153l-9.626,2.582c0,0,0.427,3.055,0.626,5.945
			C2732.158,1407.516,2732.165,1409.828,2731.627,1410.125z"/>
		<path style="fill:#F4A269;" d="M2731.364,1399.143c0,0,0.427,3.055,0.626,5.945c5.448-0.518,8.001-5.688,9-8.527
			L2731.364,1399.143z"/>
		<path style="fill:#163560;" d="M2741.896,1394.877c0,0,1.651-5.1,1.355-9.022c-0.211-2.801-4.121-12.379-13.732-8.391
			c0,0-2.824,1.029-5.076,3.567c-1.791,2.019-4.107,5.979,1.61,13.746l1.659,2.694L2741.896,1394.877z"/>
		<path style="fill:#FFB27D;" d="M2731.106,1403.575c0,0,12.591-3.009,10.597-10.82c-1.995-7.812-1.713-13.462-9.836-11.871
			s-8.917,4.969-8.886,7.738S2727.78,1404.156,2731.106,1403.575z"/>
		<path style="fill:#163560;" d="M2726.108,1382.157c0,0,5.782,8.281,11.397,8.285s7.539-1.994,7.539-1.994
			s-4.864-2.173-7.141-7.562C2737.904,1380.887,2727.579,1377.133,2726.108,1382.157z"/>
		<path style="fill:#163560;" d="M2727.149,1382.683c0,0-2.038,2.703-2.153,4.853c-0.115,2.148,0.653,6.314-0.575,6.481
			c0,0-4.184-5.564-2.181-9.832C2724.364,1379.658,2727.149,1382.683,2727.149,1382.683z"/>
		<path style="fill:#265CAA;" d="M2716.788,1459.685c1.047,1.251,4.313,1.635,7.805,2.209c2.747,0.454,5.634,1.022,7.686,2.228
			c4.66,2.736,19.887,11.984,24.35,11.563c1.73-0.163,1.406-3.466,0.358-7.849c-1.649-6.921-5.103-16.532-5.103-20.711
			c0-2.281-0.76-7.679-1.772-13.85c-0.082-0.498-0.166-0.999-0.25-1.506c-2.006-11.998-4.781-26.146-4.781-26.146
			s-3.097,6.757-9.131,6.757c-6.032,0-4.631-5.152-4.631-5.152s-5.506,0.647-6.806,2.048c-1.303,1.401-4.601,7.457-5.255,9.108
			c0,0-0.134,2.102,5.07,3.103c0,0-1.268,5.704-1.418,9.507c-0.111,2.81,1.917,11.602,2.5,17.07c0.207,1.938,0.234,3.457-0.08,4.146
			c-0.402,0.884-1.705,1.764-3.187,2.627C2719.203,1456.549,2715.547,1458.197,2716.788,1459.685z"/>
		<path style="fill:#FFB27D;" d="M2746.73,1410.077c0,0,4.593-2.789,9.033,2.502c4.441,5.291-3.155,43.114-9.736,45.058
			c-7.309,2.158-29.239,2.048-29.239,2.048l0.917-2.661c0,0,22.783-7.342,23.718-8.542
			C2742.356,1447.28,2744.395,1410.688,2746.73,1410.077z"/>
		<path style="fill:#265CAA;" d="M2745.079,1405.623c0,0,9.433,0.852,12.172,3.953c2.739,3.104,3.54,11.51,3.54,11.51
			s-8.307,6.705-18.314,4.104L2745.079,1405.623z"/>
		<g>
			<path style="fill:#163560;" d="M2686.533,1446.075l-0.898-8.273l11.699,15.418c0,0-4.898,2.439-5.186,1.973
				S2686.533,1446.075,2686.533,1446.075z"/>
			<polygon style="fill:#1650A5;" points="2704.043,1446.075 2714.851,1462.579 2696.698,1462.579 2686.533,1446.075 			"/>
			<polygon style="fill:#EFDECE;" points="2686.533,1446.075 2685.685,1437.882 2691.801,1445.532 			"/>
			<polygon style="fill:#EFDECE;" points="2714.296,1461.732 2715.125,1461.14 2704.385,1445.179 2704.043,1446.075 			"/>
			<polygon style="fill:#FCECDB;" points="2704.385,1445.179 2687.284,1445.659 2686.533,1446.075 2704.043,1446.075 			"/>
		</g>
		<path style="fill:#FFB27D;" d="M2707.954,1459.304c0.335-0.045,0.763-0.037,1.165-0.01c-1.306-0.607-2.62-1.267-2.62-1.267
			s0.585-0.602,2.83,0.196c0.253,0.09,0.506,0.111,0.756,0.083l-3.147-1.414c0.562-0.505,2.068-0.103,3.242,0.328
			c0.838,0.307,1.773,0.17,2.479-0.379c0.012-0.009,0.023-0.018,0.034-0.026c-0.051-0.006-0.099-0.009-0.153-0.017
			c-1.836-0.271-2.305-1.32-1.795-1.2s3.589,0.344,3.589,0.344c1.391-0.08,4.148,0.983,4.148,0.983l-1.543,2.846
			c0,0-4.433,0.824-5.586,0.468c-0.094-0.029-0.205-0.068-0.329-0.115l0,0l-4.029-0.266
			C2706.994,1459.858,2707.066,1459.424,2707.954,1459.304z"/>
	</g>
	<g id="girl_2_6_">
		<path style="fill:#ED985F;" d="M2407.652,1570.028c-0.612,0-29.391,16.737-27.146,22.044c2.246,5.307,38.78-11.821,38.78-11.821
			L2407.652,1570.028z"/>
		<path style="fill:#233862;" d="M2413.211,1519.648c0,0-0.748-7.681,13.839-13.709c14.587-6.029,21.868,4.859,22.667,8.706
			c0.798,3.847,7.607,25.277-9.705,28.56C2422.699,1546.486,2413.211,1519.648,2413.211,1519.648z"/>
		<path style="fill:#FFB27D;" d="M2414.949,1581.952c3.244,2.251,7.313,4.106,12.418,5.285
			c19.143,4.423,26.479-11.756,29.234-22.862c-2.611-1.494-5.066-1.823-6.485-1.992c-1.384-0.163-2.839-0.271-4.044-0.331
			c-2.149-1.646-5.353-8.385-6.061-18.847l-0.9,0.241l-15.087,4.129c0,0,0.691,4.796,1.03,9.329
			c0.262,3.547,0.122,5.745,0.122,5.745c-1.178,0.255-2.375,2.443-2.375,2.443s-0.001,0.005-0.008,0.014
			C2422.592,1565.438,2418.215,1572.637,2414.949,1581.952z"/>
		<path style="fill:#ED985F;" d="M2424.023,1547.578c0,0,0.693,4.792,1.029,9.328c8.548-0.855,12.515-8.993,14.059-13.457
			L2424.023,1547.578z"/>
		<path style="fill:#FFB27D;" d="M2421.472,1552.08c0,0,20.287-1.119,19.396-13.742c-0.891-12.624,1.127-21.27-11.864-21.089
			c-12.99,0.181-15.164,5.176-15.892,9.461C2412.385,1530.996,2416.172,1552.046,2421.472,1552.08z"/>
		<path style="fill:#233862;" d="M2413.211,1519.648c2.859-4.021,5.286-3.357,6.694-2.312c10.64-6.884,18.422,1.607,18.422,1.607
			c2.005,8.959,8.908,13.679,8.908,13.679s-3.53,2.547-12.201,0.968c-2.649-0.482-5.104-2.164-7.238-4.265
			c3.86,5.529,8.849,9.354,8.849,9.354c-10.508-3.972-15.606-17.824-16.121-19.29c-1.157,1.199-3.422,3.787-3.996,6.206
			c-0.779,3.287-1.561,6.684-3.506,6.597C2413.021,1532.192,2408.922,1525.68,2413.211,1519.648z"/>
		<path style="fill:#B5453C;" d="M2462.38,1623.199c1.832-9.365,7.806-46.784,1.832-58.824c-2.146-4.326-10.563-4.716-19.8-4.337
			c-2.874,1.855-13.825,8.867-18.324,7.992c-0.048-0.01-0.136-0.03-0.252-0.06c-2.117-0.529-2.427-4.039-0.659-5.321
			c0.004-0.003-5.065,1.58-10.747,2.649c-3.209,0.604-12.9,7.153-12.9,7.153s5.396,5.802,11.822,8.521
			c-1.093,9.775,0.532,14.087,10.673,36.666c8.569,19.086-1.155,36.269-1.155,36.269s50.445,40.559,50.727,19.907
			C2473.807,1658.268,2460.038,1635.17,2462.38,1623.199z"/>
		<path style="fill:#DD6D22;" d="M2420.368,1698.009c-2.743-0.31-5.214-1.812-6.747-4.106c-0.244-0.365-0.504-0.757-0.78-1.175
			c-5.741-8.692-7.976-35.313-20.892-63.674c-3.146-6.904-14.439-8.146-17.518-15.951c0,0-7.58-25.298,14.506-26.044
			c22.085-0.747,59.147,70.39,59.732,77.85C2449.237,1672.136,2463.271,1702.851,2420.368,1698.009z"/>
		<path style="fill:#9E332E;" d="M2332.588,1697.428h31.435c0,0,1.176-5.014-0.889-8.426c-1.826-3.019-1.126-4.738,0.227-7.235
			c-1.424,0.583-3.267,1.113-5.294,0.997c-1.566-0.09-3.223-0.801-4.675-1.645c-1.354,1.543-7.146,8.107-8.956,9.409
			C2342.381,1692.004,2333.221,1691.479,2332.588,1697.428z"/>
		<path style="fill:#9E332E;" d="M2459.066,1574.183c0,0,4.091,37.223-22.441,45.022c-26.533,7.799-34.065-34.248-12.643-37.272
			C2445.404,1578.908,2459.066,1574.183,2459.066,1574.183z"/>
		<path style="fill:#ED7D2B;" d="M2373.713,1594.371c-1.894,14.19-9.285,58.979-22.324,80.83
			c-4.203,7.045,10.592,10.995,10.672,10.974c1.984-0.519,5.289-3.683,6.813-5.056c10.585-9.54,32.074-36.555,32.074-58.212
			c0-10.561,0.186-30.729-7.493-35.854C2388.726,1583.896,2374.465,1588.735,2373.713,1594.371z"/>
		<path style="fill:#F99746;" d="M2439.112,1697.428c0,0-1.165-1.621-3.196-4.7c-2.417-3.661-5.093-10.867-8.338-20.104
			c-3.41-9.696-7.455-21.625-12.509-34.037c-1.561-3.832-3.217-7.71-4.979-11.582c-3.146-6.904-11.801-5.95-14.88-13.756
			c0,0-12.014-27.058,10.071-27.804s64.052,72.382,66.464,79.464C2474.385,1672.661,2487.266,1704.855,2439.112,1697.428z"/>
		<path style="fill:#B5453C;" d="M2355.663,1697.428h31.435c0,0,1.175-5.014-0.889-8.426c-1.826-3.019-1.127-4.738,0.227-7.235
			c-1.424,0.583-3.267,1.113-5.295,0.997c-1.565-0.09-3.222-0.801-4.674-1.645c-1.354,1.543-7.146,8.107-8.957,9.409
			C2365.456,1692.004,2356.296,1691.479,2355.663,1697.428z"/>
		<path style="fill:#ED7D2B;" d="M2427.578,1672.623c-3.41-9.696-7.455-21.625-12.509-34.037c1.319-9.404,4.167-17.631,8.955-20.947
			C2424.024,1617.639,2435.641,1653.626,2427.578,1672.623z"/>
		<path style="fill:#F99746;" d="M2392.063,1593.365c-1.894,14.19-4.56,59.985-17.598,81.836
			c-4.204,7.045,10.591,10.995,10.67,10.974c1.984-0.519,5.29-3.683,6.814-5.056c10.585-9.54,32.074-36.555,32.074-58.212
			c0-10.561-12.393-29.882-20.072-35.008C2399.223,1584.742,2392.813,1587.729,2392.063,1593.365z"/>
		<path style="fill:#FFB27D;" d="M2456.602,1564.375c0,0-44.616,16.431-51.319,16.094c-4.333-0.218-40.349-12.877-40.349-12.877
			l-3.234,6.116c0,0,35.056,22.53,44.692,22.419c19.026-0.22,51.131-11.898,54.754-14.194S2467.131,1566.699,2456.602,1564.375z"/>
		<path style="fill:#FFB27D;" d="M2364.934,1567.592c0,0-3.234-4.976-6.453-5.122c-3.22-0.146-8.78,2.194-10.683,2.561
			s-7.317,2.122-5.707,4.756c1.609,2.634,9.073,3.22,12.292,2.634c3.22-0.585,7.316,1.288,7.316,1.288L2364.934,1567.592z"/>
		<path style="fill:#FFB27D;" d="M2359.356,1562.623c0,0-5.12-2.349-6.583-2.787c-1.463-0.439-1.171,0.007-0.732,1.394
			c0.439,1.387,3.073,2.71,3.073,3.146S2359.356,1562.623,2359.356,1562.623z"/>
		<path style="fill:#FFFFFF;" d="M2417.674,1544.82c0,0,1.918-0.758,7.314-0.321c0,0-0.287,2.105-4.267,2.313
			C2418.467,1546.931,2417.674,1544.82,2417.674,1544.82z"/>
		<path style="fill:#B5453C;" d="M2433.615,1572.479c0,0,3.99,12.632,17.694,15.506c0,0,22.631-6.972,11.363-22.39
			C2462.673,1565.595,2451.531,1557.316,2433.615,1572.479z"/>
		<path style="fill:#233862;" d="M2441.789,1506.705c0,0,5.205-7.348,18.522-3.521c13.318,3.827,6.583,20.207,11.022,24.799
			c4.438,4.593,10.408,14.045,0,17.892c-10.41,3.846-18.982,4.611-16.38-9.778c2.603-14.389,0.918-29.238-11.634-26.023
			L2441.789,1506.705z"/>
	</g>
	<g id="girl_2_3_">
		<path style="fill:#182E51;" d="M2228.811,1671.424c1.106-2.59,17.967-46.807,31.05-46.804c7.012,0.001,13.267,1.609,11.793,13.15
			s-14.373,74.133-22.48,73.241S2228.811,1671.424,2228.811,1671.424z"/>
		<path style="fill:#182E51;" d="M2276.203,1701.889c-0.243,1.888-0.652,5.816-0.201,8.063c0.125,0.619,0.668,1.06,1.3,1.06h21.063
			c1.008,0,1.653-1.086,1.154-1.962c-1.098-1.924-2.97-4.691-5.063-5.563c-2.632-1.096-5.045-2.627-5.931-3.213
			c-0.24-0.159-0.521-0.23-0.809-0.212l-10.294,0.685C2276.795,1700.787,2276.283,1701.263,2276.203,1701.889z"/>
		<path style="fill:#233862;" d="M2282.244,1632.469c0,0,6.546,63.099,7.283,68.348c0,0-10.135,2.029-13.175,0
			c-3.04-2.028-15.755-35.893-15.479-41.974S2282.244,1632.469,2282.244,1632.469z"/>
		<path style="fill:#233862;" d="M2239.314,1671.424c1.105-2.59,17.966-46.807,31.049-46.804c7.012,0.001,13.268,1.609,11.793,13.15
			c-1.474,11.541-14.372,74.133-22.48,73.241C2251.568,1710.12,2239.314,1671.424,2239.314,1671.424z"/>
		<path style="fill:#233862;" d="M2189.521,1680.539c0,0-5.027,28.866,16.348,30.473s50.49,1.26,53.807,0s13.82-26.32-5.988-31.296
			C2233.879,1674.741,2189.521,1680.539,2189.521,1680.539z"/>
		<path style="fill:#FFFFFF;" d="M2250.716,1640.999c1.74-8.896,7.415-44.438,1.74-55.876c-2.037-4.108-10.034-4.479-18.807-4.119
			c-2.73,1.763-13.133,8.423-17.405,7.592c-0.046-0.009-38.25,22.409-28.617,43.855c4.409,9.819,2.825,24.653,0.447,36.188
			c-2.045,9.92,4.107,19.674,13.965,21.999c22.98,5.421,51.466,2.458,51.648-10.922
			C2253.888,1664.949,2248.492,1652.369,2250.716,1640.999z"/>
		<path style="fill:#FFB27D;" d="M2240.025,1603.5c0,0,20.02,32.821,33.84,39.455c0,0,6.357-9.951-5.528-26.812
			s-16.418-34.502-20.039-32.984C2244.676,1584.678,2240.025,1603.5,2240.025,1603.5z"/>
		<path style="fill:#FFB27D;" d="M2270.363,1624.62c0,0,10.965-0.185,13.729,2.579c2.764,2.765-1.105,16.861-10.227,15.756
			L2270.363,1624.62z"/>
		<path style="fill:#FFFFFF;" d="M2247.39,1581.771c0,0,5.391,0.1,10.405,11.57c0,0-5.213,20.315-15.993,18.519
			C2231.022,1610.063,2247.39,1581.771,2247.39,1581.771z"/>
		<path style="fill:#233862;" d="M2228.514,1528.887c0,0-12.945-2.459-19.392,2.249c-11.678,8.528-12.305,37.93-16.682,42.31
			c-4.377,4.379-14.927,2.511-15.866,25.173s4.2,24.557-1.921,34.673c-6.121,10.117,2.589,20.242,2.589,20.242
			s-3.567-5.585-2.038-9.615c0,0,7.618,10.969,12.792,14.055c14.031,8.368,29.67,5.414,37.351,0.245
			c1.129-0.76,2.423-1.211,3.765-1.434c3.813-0.633,11.821-5.649,8.886-37.442c-1.612-17.448,9.487-34.881,4.854-42.474
			c0,0,2.063,3.248,2.316,6.862c0,0,2.779-5.327-2.039-10.285c-4.818-4.959,5.652-15.221,4.103-27.106
			C2246.167,1538.181,2240.441,1529.242,2228.514,1528.887z"/>
	</g>
	<path style="fill:#82B378;" d="M748.299,1753.247H384.067c-51.802,0-97.934-32.869-114.81-81.854
		c-1.445-4.201-2.792-8.169-3.992-11.794c-6.895-21.382-14.487-45.924-22.215-73.037c0,0,59.174-15.614,124.08,17.427
		c64.905,33.041,42.862,85.7,116.34,75.903c73.478-9.798,188.3-22.044,228.86,12.246
		C734.227,1710.654,743.976,1734.877,748.299,1753.247z"/>
	<path style="fill:#82B378;" d="M669.003,1686.627c0,0,24.32-39.188,39.102-33.372c14.782,5.817-32.979,33.372-32.979,33.372
		H669.003z"/>
	<path style="fill:#82B378;" d="M658.288,1677.441c0,0,4.286-25.977,14.695-24.775c10.41,1.201-5.205,24.775-5.205,24.775H658.288z"
		/>
	<path style="fill:#82B378;" d="M362.232,1619.908c0,0,34.29-41.044,45.924-38.291c11.634,2.752-40.207,39.642-40.207,39.642
		L362.232,1619.908z"/>
	<path style="fill:#82B378;" d="M355.347,1608.498c0,0,5.307-28.166,14.696-27.758c9.389,0.408-7.348,27.758-7.348,27.758H355.347z"
		/>
	<path style="fill:#82B378;" d="M380.037,1621.259c0,0,51.591-10.817,53.632,0C435.71,1632.076,380.037,1621.259,380.037,1621.259z"
		/>
	<path style="fill:#82B378;" d="M2022.748,1573.396c0,14.81-128.182,26.814-286.302,26.814
		c-158.119,0-286.301-12.005-286.301-26.814c0-14.809,128.182-26.813,286.301-26.813
		C1894.566,1546.583,2022.748,1558.588,2022.748,1573.396z"/>
	<path style="fill:#73A567;" d="M1627.932,1574.979c0,0-19.836-11.18-8.927-39.371c10.91-28.192,35.04-56.282,83.704-59.873
		s75.906-0.954,100.735,17.347c24.828,18.301,59.045,44.088,48.631,69.874S1668.099,1583.531,1627.932,1574.979z"/>
	<g>
		<path style="fill:#163560;" d="M1416.044,1280.102c0,0-9.808,0.967-15.358,9.319c-3.851,5.796-3.157,19.426-8.384,24.113
			c-5.226,4.688-4.162,13.941,2.442,17.84s41.621,6.607,52.524-2.643c10.902-9.251-3.774-14.404-2.973-29.997
			C1444.669,1291.479,1434.44,1277.987,1416.044,1280.102z"/>
		<path style="fill:#F4A269;" d="M1382.726,1432.331c0,0-5.313,5.32-6.111,7.078c-0.799,1.757-1.943,6.163,2.024,6.516
			c3.967,0.354,5.565-0.247,6.124-2.144s1.678-8.207,1.678-8.207L1382.726,1432.331z"/>
		<path style="fill:#FFB27D;" d="M1401.574,1341.149c0,0-10.235,2.802-13.164,16.222s-0.133,42.146-2.689,51.147
			c-2.556,9.003-5.751,25.457-5.751,25.457s3.606,2.899,7.429,2.717c0,0,19.546-28.626,19.718-36.359
			C1407.289,1392.599,1401.574,1341.149,1401.574,1341.149z"/>
		<path style="fill:#233862;" d="M1479.36,1602.326c0,0,6.154,5.616,4.954,9.607c-1.201,3.99-6.755,6.65-7.505,11.528
			s-3.752,7.538-6.455,7.538c-2.702,0-12.881,0-12.881,0s-1.989-3.433,2.814-4.467c4.803-1.035,6.614-6.767,6.314-12.088
			c-0.301-5.32,0.45-12.415,0.45-12.415l10.207-2.365L1479.36,1602.326z"/>
		<path style="fill:#233862;" d="M1427.27,1604.71c0,0,2.214,23.794-0.488,25.124l-34.579-0.071c0,0,0-3.99,5.554-4.877
			c5.554-0.887,15.311-4.139,16.962-11.381C1416.371,1606.262,1427.27,1604.71,1427.27,1604.71z"/>
		<path style="fill:#FFB27D;" d="M1451.911,1434.01c-7.116-15.957-11.47-20.538-10.639-25.491
			c0.619-3.687-1.884-68.731-1.884-68.731c-0.844-0.262-2.536-0.496-3.462-0.702c-2.919-0.647-5.335-2.698-6.34-5.514
			c-1.211-3.392-2.174-8.399-2.152-14.676l-0.912,0.18l-15.326,3.034c0,0,0.349,4.824,0.359,9.367c0,0.038,0,0.076,0,0.113
			c0.019,3.946-2.57,7.429-6.362,8.523c-1.936,0.559-3.62,1.036-3.62,1.036s-5.628,16.067-6.703,32.573s10.234,23.677-0.085,56.661
			C1384.252,1464.071,1455.842,1442.828,1451.911,1434.01z"/>
		<path style="fill:#E8945B;" d="M1411.197,1322.109c0,0,0.349,4.824,0.359,9.367c8.576-0.242,13.109-8.065,14.967-12.401
			L1411.197,1322.109z"/>
		<path style="fill:#FFB27D;" d="M1408.333,1326.412c0,0,20.292,0.335,20.305-12.305c0.014-12.64,2.643-21.109-10.313-21.857
			s-15.478,4.072-16.508,8.29S1403.056,1325.999,1408.333,1326.412z"/>
		<path style="fill:#163560;" d="M1409.084,1291.94c0,0,5.556,14.829,14.082,17.021c8.526,2.192,12.225-0.092,12.225-0.092
			s-6.54-5.195-7.897-14.265C1427.494,1294.605,1413.275,1284.883,1409.084,1291.94z"/>
		<path style="fill:#163560;" d="M1410.461,1293.145c0,0-4.12,1.54-5.815,4.545c-1.658,2.938-3.071,6.829-2.743,11.604
			c0,0-4.186-10.079,0.518-15.781C1407.409,1287.467,1410.461,1293.145,1410.461,1293.145z"/>
		<path style="fill:#EBF3FA;" d="M1412.749,1318.571c0,0-1.4,1.842-4.202,1.709c-2.256-0.106-3.126-2.063-3.126-2.063
			S1409.565,1317.22,1412.749,1318.571z"/>
		<path style="fill:#FFFFFF;" d="M1449.147,1368.56c0,0-0.077,9.624-0.592,18.342c-0.342,5.778-0.874,11.16-1.703,13.075
			c-2.081,4.802-4.428,5.583-4.428,5.583l-18.155,4.45l-6.384,1.562l-20.131-6.012c0,0-9.169-25.593-5.487-39.999
			c3.682-14.407,9.307-24.411,9.307-24.411s16.427,16.084,37.816-1.364L1449.147,1368.56z"/>
		<path style="fill:#ED7D2B;" d="M1399.035,1409.444c0,0-9.969,31.03-10.609,41.595c-0.64,10.565,19.057,150.084,19.849,154.951
			c0.747,4.589,6.445,7.515,6.445,7.515s2.621,1.546,6.361,0.489c5.189-1.465,6.83-3.22,6.83-3.22s7.759-99.503,2.958-135.048
			c-4.802-35.545-4.858-66.282-4.858-66.282H1399.035z"/>
		<path style="fill:#F99746;" d="M1441.272,1408.519c0,0,15.207,20.404,16.625,34.197c1.417,13.793,2.224,62.241,5.244,75.688
			c3.02,13.446,14.117,39.323,14.117,81.262c0,0-1.153,2.403-4.715,3.685c-1.139,0.409-2.665,0.807-4.146,1.146
			c-2.938,0.674-5.951-0.763-7.291-3.461c-7.502-15.105-31.4-63.824-32.626-73.938c-0.867-7.157-8.413-54.523-24.872-82.317
			c-3.952-6.673,2.425-33.209,2.425-33.209L1441.272,1408.519z"/>
		<path style="fill:#FFFFFF;" d="M1412.297,1318.909c0,0-0.351,1.489-4.056,1.26c0,0-3.111-0.192-3.016-1.829
			C1405.225,1318.34,1408.242,1317.175,1412.297,1318.909z"/>
		<path style="fill:#233862;" d="M1397.442,1404.653c0,0,4.002,3.166,11.953,3.326c9.497,0.191,33.028-2.421,33.028-2.421
			s1.046,2.921,1.003,6.006c0,0-28.74,7.25-45.392,1.059C1398.034,1412.623,1395.886,1408.582,1397.442,1404.653z"/>
		<g>
			
				<rect x="1439.942" y="1432.276" transform="matrix(0.9387 -0.3448 0.3448 0.9387 -408.626 593.1575)" style="fill:#163560;" width="46.267" height="25.932"/>
			<path style="fill:#235187;" d="M1436.89,1441.049c0,0,13.996,8.729,27.398,3.122c13.402-5.605,16.031-19.077,16.031-19.077
				L1436.89,1441.049z"/>
		</g>
		<g>
			<path style="fill:#17467F;" d="M1443.273,1441.012c-1.372,0.193-2.645-0.766-2.838-2.138s0.767-2.645,2.138-2.838
				c1.372-0.192,2.645,0.767,2.837,2.138C1445.604,1439.546,1444.645,1440.819,1443.273,1441.012z M1442.69,1436.863
				c-0.916,0.129-1.557,0.979-1.428,1.895s0.979,1.557,1.895,1.428c0.916-0.129,1.556-0.979,1.427-1.895
				C1444.456,1437.375,1443.605,1436.734,1442.69,1436.863z"/>
		</g>
		<path style="fill:#FFB27D;" d="M1471.61,1443.482c0,0,0.018,3.674,0.715,5.446c0.697,1.771,2.788,4.135,3.484,4.135
			s-0.639-3.692-0.291-3.618c0.349,0.074,2.03,6.145,3.249,6.292s2.326-6.809,1.687-9.541c-0.639-2.731-3.397-6.009-3.397-6.009
			L1471.61,1443.482z"/>
		<path style="fill:#FFB27D;" d="M1439.389,1339.787c0,0,11.225,1.521,17.267,13.426c4.669,9.198,7.872,38.133,11.167,47.243
			c3.152,8.718,6.392,23.685,8.819,37.188c0.188,1.049,0.417,2.543,0.417,2.543l-5.448,3.295c0.523,0.997-1.81-3.816-2.329-4.958
			c-8.493-18.681-10.917-27.214-15.939-41.484c-1.908-5.421-7.983-17.414-10.419-21.361c-5.912-9.582-10.52-13.275-7.198-24.032
			L1439.389,1339.787z"/>
		<path style="fill:#F4A269;" d="M1380.659,1434.471c0,0-3.686,1.862-4.564,3.101s-2.437,2.876-1.478,3.075
			c0.959,0.2,3.794-1.917,3.794-1.917L1380.659,1434.471z"/>
		<path style="fill:#FFB27D;" d="M1376.63,1442.235c0,0,3.34-2.44,5.417-1.575s2.237,4.141,1.598,4.819s-5.872,1.438-7.269-0.399
			C1374.977,1443.243,1376.63,1442.235,1376.63,1442.235z"/>
		<path style="fill:#FFFFFF;" d="M1405.195,1340.113c0,0,14.479,4.831,30.731-1.028c0,0,11.143,0.481,16.141,6.299
			c4.998,5.816,11.008,21.175,11.008,21.175s-5.771,12.1-21.83,12.332c-16.058,0.232-49.565-10.193-49.565-10.193
			s-4.24,1.352-7.705-1.209c0,0,3.516-16.753,8.752-21.523C1397.963,1341.195,1405.195,1340.113,1405.195,1340.113z"/>
		<g>
			<path style="fill:#0C2442;" d="M1441.834,1436.712c-0.084-0.406-8.415-40.901-11.151-63.944
				c-1.437-12.099-0.768-20.858,0.046-26.076c0.888-5.693,3.046-8.276,3.098-8.393l0.878,0.132
				c-0.048,0.109-5.457,11.394-2.75,34.187c2.729,22.988,11.049,63.431,11.133,63.836L1441.834,1436.712z"/>
		</g>
	</g>
</g>
</svg>
