<?xml version="1.0" encoding="utf-8"?>
<svg xmlns="http://www.w3.org/2000/svg" xmlns:cc="http://creativecommons.org/ns#" xmlns:dc="http://purl.org/dc/elements/1.1/" xmlns:inkscape="http://www.inkscape.org/namespaces/inkscape" xmlns:rdf="http://www.w3.org/1999/02/22-rdf-syntax-ns#" xmlns:sodipodi="http://sodipodi.sourceforge.net/DTD/sodipodi-0.dtd" xmlns:svg="http://www.w3.org/2000/svg" id="svg2" version="1.1" width="209.06721" height="40">
  
  <defs id="defs35"/>
  
  <g id="cvpage4_top" width="612px" height="792px" transform="translate(-309.625,-36.473)">
    <g id="g3014" transform="matrix(1.1068375,0,0,1.1068375,-33.079558,-8.1701834)">
      <rect style="fill:#006000;fill-rule:evenodd;stroke:none" id="rect7" height="36.139" width="36.139" y="40.334" x="309.625"/>
      <path style="fill:#ffffff;fill-rule:evenodd;stroke:none" id="path9" d="m 333.291,48.296 c 0,1.144 -0.965,2.347 -2.137,2.666 -1.173,0.318 -2.137,-0.361 -2.137,-1.505 0,-1.144 0.964,-2.347 2.137,-2.666 1.172,-0.318 2.137,0.361 2.137,1.505"/>
      <path style="fill:#ffffff;fill-rule:evenodd;stroke:none" id="path11" d="m 319.962,57.192 c 0,0 2.266,-3.368 2.266,-3.368 0,0 10e-4,0.001 10e-4,0.001 0.22,-0.326 0.557,-0.59 0.932,-0.691 0.028,-0.008 0.057,-0.015 0.085,-0.021 0.028,-0.009 0.057,-0.018 0.086,-0.026 0,0 6.475,-1.76 6.475,-1.76 0.299,-0.081 0.573,-0.046 0.783,0.075 0.093,0.031 0.178,0.075 0.252,0.133 0,0 0.002,-0.002 0.002,-0.002 0,0 3.518,2.727 3.518,2.727 0,0 2.135,-0.58 2.135,-0.58 0.656,-0.178 1.197,0.202 1.197,0.842 0,0.641 -0.541,1.315 -1.197,1.493 0,0 -2.607,0.709 -2.607,0.709 -0.271,0.073 -0.521,0.052 -0.723,-0.043 -0.104,-0.031 -0.198,-0.079 -0.28,-0.142 0,0 -10e-4,0.002 -10e-4,0.002 0,0 -2.005,-1.553 -2.005,-1.553 0,0 -2.118,3.94 -2.118,3.94 0,0 4.146,7.637 4.146,7.637 0,0 -10e-4,0.001 -10e-4,0.001 0.081,0.148 0.127,0.325 0.127,0.524 0,0.732 -0.618,1.502 -1.368,1.706 -0.547,0.148 -1.023,-0.042 -1.241,-0.439 0,0 -10e-4,0.001 -10e-4,0.001 0,0 -4.015,-7.396 -4.015,-7.396 0,0 -1.293,4.767 -1.293,4.767 0,0 0,0 0,0 -0.012,0.043 -0.025,0.085 -0.041,0.127 -0.131,0.638 -0.684,1.247 -1.338,1.425 0,0 -6.091,1.655 -6.091,1.655 -0.751,0.204 -1.368,-0.231 -1.368,-0.963 0,-0.732 0.617,-1.502 1.368,-1.706 0,0 5.062,-1.376 5.062,-1.376 0,0 1.573,-5.798 1.573,-5.798 0,0 0,0 0,0 0.037,-0.133 0.091,-0.263 0.16,-0.388 0,0 -0.012,-0.004 -0.012,-0.004 0,0 2.252,-4.189 2.252,-4.189 0,0 -2.947,0.801 -2.947,0.801 0,0 -1.906,2.834 -1.906,2.834 0,0 -0.002,-10e-4 -0.002,-10e-4 -0.22,0.326 -0.557,0.589 -0.932,0.691 -0.656,0.178 -1.197,-0.202 -1.197,-0.842 0,-0.276 0.1,-0.557 0.266,-0.802 0,0 -0.002,-10e-4 -0.002,-10e-4"/>
      <path style="fill:#006000;fill-rule:evenodd;stroke:none" id="path13" d="m 356.067,61.042 c 0,0 0,8 0,8 0,0 -3.6,0 -3.6,0 0,0 0,-22.2 0,-22.2 0,0 6.656,0 6.656,0 2.541,0 4.464,0.587 5.863,1.786 1.398,1.2 2.081,2.853 2.081,5.036 0,2.182 -0.715,3.925 -2.178,5.313 -1.464,1.388 -3.396,2.065 -5.891,2.065 0,0 -2.931,0 -2.931,0 m 0,-11.2 c 0,0 0,8.2 0,8.2 0,0 2.375,0 2.375,0 1.585,0 2.764,-0.364 3.592,-1.11 0.828,-0.747 1.233,-1.774 1.233,-3.13 0,-2.66 -1.487,-3.96 -4.531,-3.96 0,0 -2.669,0 -2.669,0"/>
      <path style="fill:#006000;fill-rule:evenodd;stroke:none" id="path15" d="m 381.907,69.042 c 0,0 -3.6,0 -3.6,0 0,0 0,-2.521 0,-2.521 0,0 -0.063,0 -0.063,0 -1.096,1.963 -2.665,2.921 -4.784,2.921 -1.56,0 -2.754,-0.419 -3.638,-1.278 -0.883,-0.858 -1.315,-1.968 -1.315,-3.381 0,-3.038 1.686,-4.768 5.137,-5.272 0,0 4.675,-0.669 4.675,-0.669 0,-2.15 -1.041,-3.2 -3.175,-3.2 -1.877,0 -3.53,0.657 -5.037,2 0,0 0,-3.259 0,-3.259 1.686,-1.035 3.586,-1.541 5.79,-1.541 4.038,0 6.01,1.938 6.01,5.907 0,0 0,10.293 0,10.293 m -3.588,-7.8 c 0,0 -3.315,0.463 -3.315,0.463 -1.035,0.134 -1.796,0.379 -2.319,0.745 -0.523,0.367 -0.778,0.995 -0.778,1.914 0,0.672 0.235,1.21 0.717,1.639 0.482,0.43 1.111,0.639 1.917,0.639 1.098,0 1.986,-0.376 2.707,-1.146 0.72,-0.771 1.071,-1.717 1.071,-2.885 0,0 0,-1.369 0,-1.369"/>
      <path style="fill:#006000;fill-rule:evenodd;stroke:none" id="path17" d="m 394.487,68.911 c -0.71,0.357 -1.621,0.531 -2.778,0.531 -3.106,0 -4.622,-1.454 -4.622,-4.431 0,0 0,-8.969 0,-8.969 0,0 -2.6,0 -2.6,0 0,0 0,-2.8 0,-2.8 0,0 2.6,0 2.6,0 0,0 0,-3.596 0,-3.596 0,0 3.6,-1.004 3.6,-1.004 0,0 0,4.6 0,4.6 0,0 3.8,0 3.8,0 0,0 0,2.8 0,2.8 0,0 -3.8,0 -3.8,0 0,0 0,7.969 0,7.969 0,0.951 0.168,1.615 0.512,2.024 0.345,0.408 0.905,0.607 1.707,0.607 0.615,0 1.134,-0.196 1.581,-0.6 0,0 0,2.869 0,2.869"/>
      <path style="fill:#006000;fill-rule:evenodd;stroke:none" id="path19" d="m 411.427,69.042 c 0,0 -3.6,0 -3.6,0 0,0 0,-8.684 0,-8.684 0,-3.168 -1.018,-4.716 -3.103,-4.716 -1.046,0 -1.908,0.448 -2.627,1.365 -0.719,0.916 -1.07,2.061 -1.07,3.489 0,0 0,8.546 0,8.546 0,0 -3.6,0 -3.6,0 0,0 0,-23.4 0,-23.4 0,0 3.6,0 3.6,0 0,0 0,10.154 0,10.154 0,0 0.062,0 0.062,0 1.197,-1.985 2.871,-2.954 5.1,-2.954 3.519,0 5.238,2.116 5.238,6.447 0,0 0,9.753 0,9.753"/>
      <path style="fill:#006000;fill-rule:evenodd;stroke:none" id="path21" d="m 424.497,48.442 c -0.483,-0.268 -1.019,-0.4 -1.634,-0.4 -1.735,0 -2.582,0.988 -2.582,3.01 0,0 0,2.19 0,2.19 0,0 3.616,0 3.616,0 0,0 0,2.8 0,2.8 0,0 -3.6,0 -3.6,0 0,0 0,13 0,13 0,0 -3.6,0 -3.6,0 0,0 0,-13 0,-13 0,0 -2.6,0 -2.6,0 0,0 0,-2.8 0,-2.8 0,0 2.6,0 2.6,0 0,0 0,-2.578 0,-2.578 0,-1.69 0.535,-2.992 1.631,-3.968 1.096,-0.977 2.433,-1.454 4.075,-1.454 0.89,0 1.577,0.095 2.094,0.288 0,0 0,2.912 0,2.912"/>
      <path style="fill:#006000;fill-rule:evenodd;stroke:none" id="path23" d="m 429.232,49.842 c -0.603,0 -1.107,-0.184 -1.536,-0.56 -0.429,-0.377 -0.639,-0.844 -0.639,-1.424 0,-0.582 0.21,-1.054 0.639,-1.441 0.429,-0.386 0.933,-0.575 1.536,-0.575 0.626,0 1.143,0.189 1.578,0.575 0.435,0.387 0.647,0.859 0.647,1.441 0,0.55 -0.212,1.01 -0.647,1.402 -0.435,0.391 -0.952,0.582 -1.578,0.582 0,0 0,0 0,0 m 1.825,19.2 c 0,0 -3.6,0 -3.6,0 0,0 0,-15.8 0,-15.8 0,0 3.6,0 3.6,0 0,0 0,15.8 0,15.8"/>
      <path style="fill:#006000;fill-rule:evenodd;stroke:none" id="path25" d="m 449.647,69.042 c 0,0 -3.6,0 -3.6,0 0,0 0,-8.95 0,-8.95 0,-2.989 -1.013,-4.45 -3.088,-4.45 -1.083,0 -1.957,0.405 -2.662,1.233 -0.706,0.829 -1.05,1.849 -1.05,3.111 0,0 0,9.056 0,9.056 0,0 -3.6,0 -3.6,0 0,0 0,-15.8 0,-15.8 0,0 3.6,0 3.6,0 0,0 0,2.554 0,2.554 0,0 0.062,0 0.062,0 1.182,-1.985 2.851,-2.954 5.085,-2.954 1.717,0 2.998,0.551 3.904,1.677 0.906,1.126 1.349,2.716 1.349,4.845 0,0 0,9.678 0,9.678"/>
      <path style="fill:#006000;fill-rule:evenodd;stroke:none" id="path27" d="m 468.317,69.042 c 0,0 -3.6,0 -3.6,0 0,0 0,-2.615 0,-2.615 0,0 -0.063,0 -0.063,0 -1.161,2.026 -2.907,3.015 -5.322,3.015 -1.958,0 -3.489,-0.698 -4.665,-2.129 -1.176,-1.431 -1.75,-3.334 -1.75,-5.799 0,-2.643 0.635,-4.711 1.936,-6.303 1.301,-1.591 2.993,-2.369 5.158,-2.369 2.145,0 3.669,0.823 4.643,2.507 0,0 0.063,0 0.063,0 0,0 0,-9.707 0,-9.707 0,0 3.6,0 3.6,0 0,0 0,23.4 0,23.4 m -3.553,-7.218 c 0,0 0,-2.097 0,-2.097 0,-1.147 -0.362,-2.097 -1.103,-2.896 -0.741,-0.798 -1.663,-1.189 -2.81,-1.189 -1.356,0 -2.398,0.498 -3.176,1.518 -0.778,1.019 -1.158,2.401 -1.158,4.211 0,1.639 0.364,2.905 1.111,3.856 0.746,0.951 1.727,1.415 2.989,1.415 1.241,0 2.224,-0.449 2.997,-1.368 0.772,-0.92 1.15,-2.052 1.15,-3.45 0,0 0,0 0,0"/>
      <path style="fill:#006000;fill-rule:evenodd;stroke:none" id="path29" d="m 486.217,62.242 c 0,0 -10.8,0 -10.8,0 0.042,1.418 0.488,2.486 1.359,3.255 0.872,0.77 2.042,1.145 3.566,1.145 1.711,0 3.245,-0.459 4.675,-1.4 0,0 0,2.857 0,2.857 -1.455,0.902 -3.334,1.343 -5.725,1.343 -2.35,0 -4.15,-0.709 -5.486,-2.161 -1.336,-1.451 -1.989,-3.445 -1.989,-6.076 0,-2.486 0.717,-4.465 2.184,-6.031 1.468,-1.567 3.248,-2.332 5.425,-2.332 2.178,0 3.823,0.696 5.016,2.119 1.193,1.424 1.775,3.355 1.775,5.885 0,0 0,1.396 0,1.396 m -3.6,-2.6 c -0.011,-1.272 -0.305,-2.239 -0.897,-2.946 -0.592,-0.708 -1.39,-1.054 -2.431,-1.054 -1.021,0 -1.865,0.363 -2.574,1.107 -0.708,0.743 -1.134,1.692 -1.298,2.893 0,0 7.2,0 7.2,0"/>
      <path style="fill:#006000;fill-rule:evenodd;stroke:none" id="path31" d="m 498.512,56.642 c -0.42,-0.403 -1.013,-0.6 -1.806,-0.6 -1.031,0 -1.873,0.475 -2.564,1.447 -0.692,0.972 -1.03,2.263 -1.03,3.935 0,0 0,7.618 0,7.618 0,0 -3.6,0 -3.6,0 0,0 0,-15.8 0,-15.8 0,0 3.6,0 3.6,0 0,0 0,3.157 0,3.157 0,0 0.059,0 0.059,0 0.34,-1.128 0.852,-1.987 1.558,-2.617 0.707,-0.631 1.478,-0.94 2.352,-0.94 0.63,0 1.099,0.1 1.431,0.304 0,0 0,3.496 0,3.496"/>
    </g>
  </g>
</svg>