<?xml version="1.0" encoding="utf-8"?>
<svg xmlns="http://www.w3.org/2000/svg" xmlns:cc="http://creativecommons.org/ns#" xmlns:dc="http://purl.org/dc/elements/1.1/" xmlns:inkscape="http://www.inkscape.org/namespaces/inkscape" xmlns:rdf="http://www.w3.org/1999/02/22-rdf-syntax-ns#" xmlns:sodipodi="http://sodipodi.sourceforge.net/DTD/sodipodi-0.dtd" xmlns:svg="http://www.w3.org/2000/svg" id="svg2" version="1.1" width="171.77592" height="40">
  
  <defs id="defs33"/>
  
  <g id="cvpage7_top" width="612px" height="792px" transform="translate(-305.99999,-55.304998)">
    <g id="g3012" transform="matrix(1.1016856,0,0,1.1016856,-31.115802,-9.6911489)">
      <rect id="rect7" height="36.139" width="36.139" y="58.997002" x="306" style="fill:#990000;fill-rule:evenodd;stroke:none"/>
      <path id="path9" d="m 320.538,67.213 c 0,0 5.298,0 5.298,3.085 0,0 0.89,12.792 -15.006,18.308 0,0 15.679,-9.708 9.708,-21.393" style="fill:#ffffff;fill-rule:nonzero;stroke:none"/>
      <path id="path11" d="m 312.372,72.057 c 0,0 0,3.974 0.89,4.647 0,0 1.977,2.194 2.649,1.977 0,0 2.432,0 0,-3.302 0,0 -3.539,-3.322 -3.539,-3.322" style="fill:#ffffff;fill-rule:nonzero;stroke:none"/>
      <path id="path13" d="m 325.087,79.081 c 0,0 7.808,7.765 10.457,8.22 0,0 3.539,0 -0.87,-4.646 0,0 0.12,-0.924 -9.587,-3.574" style="fill:#ffffff;fill-rule:nonzero;stroke:none"/>
      <path id="path15" d="m 326.509,76.486 c 0,0 3.084,1.087 9.707,-4.192 0,0 -1.107,-3.104 -3.104,-3.104 0,0 -1.759,-0.217 -1.759,-0.217 0,0 2.649,2.649 -4.844,7.513" style="fill:#ffffff;fill-rule:nonzero;stroke:none"/>
      <path id="path17" d="m 352.442,79.705 c 0,0 0,8 0,8 0,0 -3.6,0 -3.6,0 0,0 0,-22.2 0,-22.2 0,0 6.656,0 6.656,0 2.54,0 4.464,0.586 5.862,1.786 1.399,1.2 2.082,2.852 2.082,5.036 0,2.181 -0.715,3.924 -2.179,5.312 -1.463,1.388 -3.396,2.066 -5.89,2.066 0,0 -2.931,0 -2.931,0 m 0,-11.2 c 0,0 0,8.2 0,8.2 0,0 2.375,0 2.375,0 1.585,0 2.763,-0.364 3.592,-1.111 0.828,-0.746 1.233,-1.773 1.233,-3.13 0,-2.66 -1.487,-3.959 -4.532,-3.959 0,0 -2.668,0 -2.668,0" style="fill:#990000;fill-rule:evenodd;stroke:none"/>
      <path id="path19" d="m 380.311,71.905 c 0,0 -7.162,18.362 -7.162,18.362 -1.516,3.385 -3.592,5.038 -6.328,5.038 -0.767,0 -1.393,-0.062 -1.91,-0.191 0,0 0,-2.809 0,-2.809 0.582,0.134 1.098,0.2 1.572,0.2 1.375,0 2.377,-0.681 3.053,-2.075 0,0 1.085,-2.725 1.085,-2.725 0,0 -6.31,-15.8 -6.31,-15.8 0,0 3.966,0 3.966,0 0,0 3.8,11.509 3.8,11.509 0.042,0.145 0.134,0.521 0.281,1.144 0,0 0.078,0 0.078,0 0.051,-0.239 0.142,-0.604 0.278,-1.112 0,0 3.988,-11.541 3.988,-11.541 0,0 3.609,0 3.609,0" style="fill:#990000;fill-rule:evenodd;stroke:none"/>
      <path id="path21" d="m 391.776,75.305 c -0.42,-0.403 -1.012,-0.6 -1.806,-0.6 -1.031,0 -1.872,0.475 -2.564,1.447 -0.692,0.972 -1.03,2.263 -1.03,3.934 0,0 0,7.619 0,7.619 0,0 -3.6,0 -3.6,0 0,0 0,-15.8 0,-15.8 0,0 3.6,0 3.6,0 0,0 0,3.156 0,3.156 0,0 0.059,0 0.059,0 0.341,-1.127 0.852,-1.986 1.558,-2.617 0.707,-0.631 1.478,-0.939 2.352,-0.939 0.63,0 1.099,0.1 1.431,0.303 0,0 0,3.497 0,3.497" style="fill:#990000;fill-rule:evenodd;stroke:none"/>
      <path id="path23" d="m 401.121,88.105 c -2.419,0 -4.306,-0.729 -5.75,-2.222 -1.445,-1.493 -2.15,-3.427 -2.15,-5.894 0,-2.683 0.735,-4.73 2.241,-6.239 1.505,-1.508 3.487,-2.245 6.04,-2.245 2.45,0 4.315,0.716 5.683,2.183 1.368,1.466 2.036,3.453 2.036,6.055 0,2.548 -0.72,4.543 -2.195,6.078 -1.475,1.534 -3.413,2.284 -5.905,2.284 0,0 0,0 0,0 m 0.175,-13.8 c -1.39,0 -2.464,0.488 -3.272,1.486 -0.808,0.998 -1.203,2.344 -1.203,4.101 0,1.693 0.4,2.994 1.219,3.966 0.819,0.972 1.887,1.447 3.256,1.447 1.403,0 2.455,-0.467 3.206,-1.423 0.752,-0.957 1.119,-2.286 1.119,-4.052 0,-1.778 -0.367,-3.119 -1.119,-4.086 -0.751,-0.967 -1.803,-1.439 -3.206,-1.439 0,0 0,0 0,0" style="fill:#990000;fill-rule:evenodd;stroke:none"/>
      <path id="path25" d="m 412.521,86.861 c 0,0 0,-3.756 0,-3.756 0.338,0.313 0.731,0.588 1.198,0.837 0.467,0.25 0.951,0.456 1.474,0.629 0.523,0.172 1.034,0.302 1.557,0.395 0.524,0.093 0.995,0.139 1.436,0.139 1.539,0 2.659,-0.259 3.413,-0.791 0.754,-0.531 1.122,-1.283 1.122,-2.293 0,-0.532 -0.123,-0.982 -0.374,-1.374 -0.251,-0.391 -0.593,-0.741 -1.043,-1.064 -0.451,-0.323 -0.969,-0.626 -1.578,-0.923 -0.61,-0.297 -1.249,-0.599 -1.946,-0.921 -0.747,-0.407 -1.428,-0.809 -2.073,-1.226 -0.646,-0.417 -1.193,-0.868 -1.669,-1.374 -0.476,-0.506 -0.841,-1.063 -1.112,-1.7 -0.272,-0.636 -0.405,-1.364 -0.405,-2.218 0,-1.054 0.226,-1.949 0.69,-2.725 0.464,-0.777 1.062,-1.404 1.821,-1.91 0.759,-0.506 1.602,-0.872 2.57,-1.117 0.968,-0.244 1.934,-0.364 2.944,-0.364 2.293,0 3.925,0.257 4.975,0.784 0,0 0,3.616 0,3.616 -1.243,-0.941 -2.805,-1.4 -4.76,-1.4 -0.539,0 -1.064,0.052 -1.598,0.159 -0.534,0.107 -1.002,0.28 -1.425,0.525 -0.423,0.246 -0.759,0.554 -1.023,0.938 -0.265,0.384 -0.394,0.838 -0.394,1.384 0,0.5 0.1,0.922 0.304,1.288 0.205,0.365 0.498,0.691 0.893,0.993 0.394,0.303 0.865,0.591 1.432,0.877 0.568,0.287 1.212,0.59 1.961,0.923 0.767,0.408 1.474,0.826 2.155,1.274 0.681,0.448 1.267,0.932 1.785,1.473 0.517,0.542 0.918,1.13 1.22,1.793 0.302,0.662 0.45,1.398 0.45,2.242 0,1.136 -0.22,2.072 -0.67,2.854 -0.451,0.783 -1.044,1.404 -1.808,1.894 -0.765,0.49 -1.623,0.837 -2.616,1.056 -0.993,0.22 -2.018,0.327 -3.125,0.327 -0.369,0 -0.813,-0.028 -1.352,-0.084 -0.538,-0.057 -1.076,-0.138 -1.639,-0.246 -0.562,-0.108 -1.083,-0.236 -1.585,-0.39 -0.503,-0.155 -0.899,-0.326 -1.205,-0.524 0,0 0,0 0,0" style="fill:#990000;fill-rule:evenodd;stroke:none"/>
      <path id="path27" d="m 431.906,68.505 c -0.603,0 -1.107,-0.184 -1.536,-0.561 -0.43,-0.377 -0.639,-0.844 -0.639,-1.423 0,-0.582 0.209,-1.055 0.639,-1.441 0.429,-0.386 0.933,-0.575 1.536,-0.575 0.625,0 1.143,0.189 1.578,0.575 0.434,0.386 0.647,0.859 0.647,1.441 0,0.55 -0.213,1.01 -0.647,1.401 -0.435,0.392 -0.953,0.583 -1.578,0.583 0,0 0,0 0,0 m 1.825,19.2 c 0,0 -3.6,0 -3.6,0 0,0 0,-15.8 0,-15.8 0,0 3.6,0 3.6,0 0,0 0,15.8 0,15.8" style="fill:#990000;fill-rule:evenodd;stroke:none"/>
      <path id="path29" d="m 461.921,87.705 c 0,0 -3.6,0 -3.6,0 0,0 0,-8.666 0,-8.666 0,-1.679 -0.23,-2.866 -0.699,-3.617 -0.469,-0.75 -1.242,-1.117 -2.355,-1.117 -0.938,0 -1.716,0.464 -2.371,1.413 -0.655,0.948 -0.975,2.059 -0.975,3.384 0,0 0,8.603 0,8.603 0,0 -3.6,0 -3.6,0 0,0 0,-8.959 0,-8.959 0,-2.984 -1.018,-4.441 -3.1,-4.441 -0.971,0 -1.749,0.438 -2.372,1.336 -0.624,0.897 -0.928,2.033 -0.928,3.461 0,0 0,8.603 0,8.603 0,0 -3.6,0 -3.6,0 0,0 0,-15.8 0,-15.8 0,0 3.6,0 3.6,0 0,0 0,2.416 0,2.416 0,0 0.062,0 0.062,0 1.146,-1.892 2.777,-2.816 4.969,-2.816 1.096,0 2.032,0.291 2.853,0.887 0.821,0.597 1.368,1.361 1.669,2.329 1.18,-2.161 2.898,-3.216 5.237,-3.216 3.5,0 5.21,2.115 5.21,6.447 0,0 0,9.753 0,9.753" style="fill:#990000;fill-rule:evenodd;stroke:none"/>
    </g>
  </g>
</svg>