<?xml version="1.0" encoding="utf-8"?>
<svg xmlns="http://www.w3.org/2000/svg" height="250" width="954.785">
  <g fill-rule="evenodd">
    <path fill="#639" d="M0 0h250v250H0z"/>
    <path fill="#fff" d="M176.931 90.305h10.618l-60.142 136.42-56.953-136.42h40.07l32.086 77.793 34.321-77.793m18.558-18.01H62.936l-6.301-15.093h122.04L166.01 26.747h10.59L195.55 72.15l-.062.145"/>
    <path fill="#639" d="m428.591 48.085-54.788 153.553h-28.317L291.64 48.085h27.757l37.586 116.507c1.21 3.728 2.116 7.982 2.767 12.948h.415c.505-4.095 1.521-8.418 3.084-13.163l38.437-116.292h26.906M530.268 154.604h-74.701c.29 9.8 3.382 17.188 9.407 22.514 6.024 5.319 14.117 7.92 24.658 7.92 11.841 0 22.452-3.175 32.336-9.684v19.754c-10.064 6.246-23.054 9.297-39.599 9.297-16.247 0-28.697-4.904-37.938-14.948-9.248-10.043-13.765-23.835-13.765-42.033 0-17.188 4.96-30.876 15.113-41.715 10.147-10.832 22.466-16.123 37.524-16.123s26.443 4.807 34.688 14.657c8.251 9.842 12.277 23.199 12.277 40.698v9.663m-24.9-17.984c-.07-8.798-2.103-15.486-6.198-20.384-4.095-4.89-9.614-7.283-16.822-7.283-7.055 0-12.892 2.51-17.796 7.65-4.904 5.146-7.85 11.71-8.985 20.017h49.8M649.894 201.638h-24.9v-61.905c0-20.681-7.008-30.78-21.353-30.78-7.49 0-13.536 2.794-18.42 8.528-4.876 5.728-7.262 12.79-7.262 21.519v62.638h-24.9V92.353h24.9v17.658h.436c8.175-13.723 19.713-20.425 35.165-20.425 11.883 0 20.743 3.804 27.01 11.6 6.266 7.788 9.324 18.785 9.324 33.511v66.94M737.53 200.732c-4.905 2.47-11.213 3.673-19.216 3.673-21.476 0-31.969-10.057-31.969-30.649V111.72h-17.984V92.353h17.984v-24.88l24.9-6.937v31.817h26.284v19.367h-26.284v55.12c0 6.577 1.17 11.17 3.549 13.992 2.379 2.83 6.252 4.206 11.8 4.206 4.254 0 7.843-1.363 10.935-4.15v19.844M851.933 201.638h-24.9v-16.815h-.43c-7.158 13.156-18.039 19.582-33.159 19.582-25.765 0-38.346-15.3-38.346-46.626V92.353h24.9v63.074c0 19.893 7.325 29.61 22.307 29.61 7.249 0 13.072-2.67 17.762-8.147 4.683-5.478 6.965-12.485 6.965-21.36V92.354h24.9v109.285M877.317 198.117v-24.146c9.241 7.435 19.194 11.067 30.351 11.067 14.926 0 22.217-4.047 22.217-12.34 0-2.518-.623-4.606-1.91-6.37-1.286-1.764-2.974-3.293-5.145-4.67-2.172-1.369-4.676-2.565-7.63-3.637-2.953-1.08-6.17-2.269-9.8-3.632-4.49-1.805-8.44-3.666-12.029-5.685-3.597-2.02-6.516-4.254-8.895-6.813a25.59 25.59 0 0 1-5.354-8.619c-1.21-3.244-1.805-6.93-1.805-11.24 0-5.332 1.231-9.918 3.756-13.978 2.518-4.06 5.817-7.394 10.057-10.168 4.24-2.773 8.95-4.814 14.345-6.211 5.395-1.404 10.839-2.089 16.587-2.089 10.209 0 19.132 1.59 27.19 4.842v22.825c-7.74-5.575-16.42-8.3-26.457-8.3-3.147 0-5.928.297-8.473.9-2.539.601-4.655 1.417-6.446 2.482-1.799 1.066-3.161 2.324-4.164 3.825a8.614 8.614 0 0 0-1.494 4.918c0 2.386.49 4.35 1.494 5.997 1.003 1.653 2.448 3.071 4.413 4.337 1.957 1.266 4.253 2.393 7 3.437a288.178 288.178 0 0 0 9.4 3.369c4.71 1.95 8.839 3.88 12.58 5.893 3.75 2.013 6.87 4.24 9.504 6.8a26.568 26.568 0 0 1 6.053 8.784c1.424 3.347 2.123 7.228 2.123 11.834 0 5.603-1.259 10.382-3.832 14.56-2.58 4.17-5.934 7.546-10.237 10.285-4.295 2.74-9.144 4.724-14.76 6.052-5.623 1.328-11.406 1.979-17.617 1.979-12.042 0-22.217-2.062-31.022-6.288"/>
  </g>
</svg>